<svg xmlns="http://www.w3.org/2000/svg" width="22" height="22" viewBox="0 0 80 80">
  <path fill="#000000" fill-rule="evenodd" d="M52.9056214,38.2017711 C55.8537899,42.1877258 58.491916,46.1204688 60.8199997,50 C65.3379147,57.528678 67.9927053,65.4335097 68.7843714,73.7144951 C68.942054,75.3638318 67.7328248,76.8287066 66.0834876,76.9863841 C65.9885912,76.9954562 65.8933164,77 65.7979873,77 L16.0495024,76.9999956 C14.3926506,76.9999956 13.0495068,75.6568518 13.0495068,74 C13.0495068,73.9434873 13.0511037,73.8869859 13.0542955,73.8305635 C13.4917633,66.097245 16.1569979,58.1537239 21.0499992,50 C23.3821111,46.1137562 25.9050237,42.3147942 28.6187369,38.6031141 C31.9408037,41.060291 36.0507357,42.5131458 40.5,42.5131458 C45.1863826,42.5131458 49.4963003,40.9013082 52.9056188,38.2017676 Z M40.5,40 C30.8350169,40 23,32.1649831 23,22.5 C23,12.8350169 30.8350169,5 40.5,5 C50.1649831,5 58,12.8350169 58,22.5 C58,32.1649831 50.1649831,40 40.5,40 Z"/>
</svg>
