<svg xmlns="http://www.w3.org/2000/svg" width="80" height="80" viewBox="0 0 80 80">
  <path fill="#000000" fill-rule="evenodd" stroke="#000000" stroke-width="3" d="M21.4350563,29.6533342 L2.61086069,7.82313619 L7.15479961,3.90489435 L28.487103,28.6437154 C29.4369144,29.7452006 30.8192734,30.3785139 32.2737188,30.3785139 L41.581687,30.3785139 C43.0122367,30.3785139 44.3742715,29.7657618 45.3232283,28.6952697 L67.3145311,3.88748414 L71.8043806,7.8675911 L52.6117931,29.5182227 L72.3245899,58.5560381 L67.3604156,61.9260491 L48.4062017,34.0056595 C46.4778596,35.5310887 44.0769342,36.3785139 41.581687,36.3785139 L32.2737188,36.3785139 C29.8680957,36.3785139 27.5483455,35.5907163 25.6553426,34.1648189 L7.55471004,61.8958686 L2.53030407,58.6163344 L21.4350563,29.6533342 Z M68.1574972,57.7589564 L68.9998919,58.9998407 L68.1574972,57.7589564 Z M4,1.5 C2.61928813,1.5 1.5,2.61928813 1.5,4 L1.5,60 C1.5,61.3807119 2.61928813,62.5 4,62.5 L70,62.5 C71.3807119,62.5 72.5,61.3807119 72.5,60 L72.5,4 C72.5,2.61928813 71.3807119,1.5 70,1.5 L4,1.5 Z" transform="translate(3 8)"/>
</svg>
