<svg xmlns="http://www.w3.org/2000/svg" width="80" height="80" viewBox="0 0 80 80">
  <path fill="#000000" fill-rule="evenodd" d="M22.1040226,30.2859469 L6.40176979,54.3011572 C5.4635248,55.7361201 5.86619424,57.6599852 7.30115717,58.5982302 C8.73612009,59.5364752 10.6599852,59.1338058 11.5982302,57.6988428 L26.4265848,35.0201829 C28.1866684,36.3600674 30.3530322,37.1043304 32.6051148,37.1043304 L40.8842317,37.1043304 C43.3128101,37.1043304 45.6434344,36.2387274 47.4722488,34.6914453 L63.4476438,57.7670158 C64.4235397,59.1766433 66.3573884,59.5282521 67.7670158,58.5523562 C69.1766433,57.5764603 69.5282521,55.6426116 68.5523562,54.2329842 L51.7472503,29.9589422 L67.3418334,12.0378134 C68.4672867,10.7444545 68.3311723,8.78361982 67.0378134,7.65816657 C65.7444545,6.53271331 63.7836198,6.66882772 62.6581666,7.96218662 L43.8951604,29.5244334 C43.1371345,30.3955487 42.0389806,30.8956696 40.8842317,30.8956696 L32.6051148,30.8956696 C31.4313224,30.8956696 30.317038,30.3789847 29.5586784,29.483061 L11.3694506,7.99436518 C10.2617691,6.68575374 8.30297661,6.52286787 6.99436518,7.6305494 C5.68575374,8.73823092 5.52286787,10.6970234 6.6305494,12.0056348 L22.1040226,30.2859469 Z M4,0 L70,0 C72.209139,-4.05812251e-16 74,1.790861 74,4 L74,60 C74,62.209139 72.209139,64 70,64 L4,64 C1.790861,64 2.705415e-16,62.209139 0,60 L0,4 C-2.705415e-16,1.790861 1.790861,4.05812251e-16 4,0 Z" transform="translate(3 8)"/>
</svg>
