<svg xmlns="http://www.w3.org/2000/svg" width="80" height="80" viewBox="0 0 80 80">
  <g fill="#000000" transform="translate(8 2.5)">
    <g transform="translate(0 22.5)">
      <path d="M3.55271368e-15,19.5 C-1.93299662,19.5 -3.5,17.9329966 -3.5,16 C-3.5,14.0670034 -1.93299662,12.5 3.55271368e-15,12.5 L48.997247,12.5 C50.9302436,12.5 52.497247,14.0670034 52.497247,16 C52.497247,17.9329966 50.9302436,19.5 48.997247,19.5 L3.55271368e-15,19.5 Z"/>
      <path d="M45.7046881,16.8450937 L32.1081543,2.39877645 C30.7833466,0.991168319 30.8504697,-1.22389232 32.2580778,-2.54869997 C33.6656859,-3.87350762 35.8807466,-3.80638457 37.2055542,-2.39877645 L52.5188496,13.8715999 C54.2221737,15.6813818 54.1358727,18.5293169 52.3260908,20.232641 L52.3196847,20.2386585 L37.0506482,34.5533802 C35.6404552,35.8754361 33.4255299,35.8039869 32.103474,34.393794 C30.7814181,32.983601 30.8528673,30.7686757 32.2630603,29.4466198 L45.7046881,16.8450937 Z"/>
    </g>
    <path d="M58.5,4 C58.5,2.06700338 60.0670034,0.5 62,0.5 C63.9329966,0.5 65.5,2.06700338 65.5,4 L65.5,71 C65.5,72.9329966 63.9329966,74.5 62,74.5 C60.0670034,74.5 58.5,72.9329966 58.5,71 L58.5,4 Z"/>
  </g>
</svg>
