<svg xmlns="http://www.w3.org/2000/svg" width="80" height="80" viewBox="0 0 80 80">
  <!--
    credit: Yaroslav Samoylov, RU
    https://thenounproject.com/search/?q=images&i=212472
    CC BY-SA 3.0: https://creativecommons.org/licenses/by-sa/3.0/deed.en
  -->
  <g fill="#000000" transform="translate(3 3)">
    <rect width="5.982" height="3.083" x=".848" y="1.949" transform="rotate(45 -39.326 83.507)"/>
    <polygon points="30.015 .506 44.536 15.027 42.357 17.207 30.015 4.866 2.632 32.25 .452 30.07" transform="translate(0 37)"/>
    <polygon points="20.345 .249 38.09 17.994 35.91 20.174 20.345 4.61 2.632 22.323 .452 20.143" transform="translate(35.458 25.438)"/>
    <path d="M9.32014583,18.3836042 C4.32283333,18.3836042 0.2566875,14.3182292 0.2566875,9.32014583 C0.2566875,4.32283333 4.3220625,0.257458333 9.32014583,0.257458333 C14.3182292,0.257458333 18.3836042,4.32283333 18.3836042,9.32014583 C18.3836042,14.3174583 14.3174583,18.3836042 9.32014583,18.3836042 Z M9.32014583,3.34002083 C6.02329167,3.34002083 3.34002083,6.02252083 3.34002083,9.319375 C3.34002083,12.617 6.02252083,15.2995 9.32014583,15.2995 C12.6177708,15.2995 15.3002708,12.617 15.3002708,9.319375 C15.3002708,6.02252083 12.617,3.34002083 9.32014583,3.34002083 L9.32014583,3.34002083 Z" transform="translate(11.563 11.563)"/>
    <path d="M66.2916667,74 L7.70833333,74 C3.45795833,74 0,70.5420417 0,66.2916667 L0,7.70833333 C0,3.45795833 3.45795833,0 7.70833333,0 L66.2916667,0 C70.5420417,0 74,3.45795833 74,7.70833333 L74,66.2916667 C74,70.5420417 70.5420417,74 66.2916667,74 Z M7.70833333,3.08333333 C5.15764583,3.08333333 3.08333333,5.15764583 3.08333333,7.70833333 L3.08333333,66.2916667 C3.08333333,68.8423542 5.15764583,70.9166667 7.70833333,70.9166667 L66.2916667,70.9166667 C68.8423542,70.9166667 70.9166667,68.8423542 70.9166667,66.2916667 L70.9166667,7.70833333 C70.9166667,5.15764583 68.8423542,3.08333333 66.2916667,3.08333333 L7.70833333,3.08333333 Z"/>
  </g>
</svg>
