<svg xmlns="http://www.w3.org/2000/svg" width="80" height="80" viewBox="0 0 80 80">
  <path fill="#000000" fill-rule="evenodd" d="M56.430072,43.1575556 C57.9988495,45.4564717 59.4621587,47.7372865 60.8199997,50 C65.3379147,57.528678 67.9927053,65.4335097 68.7843714,73.7144951 C68.942054,75.3638318 67.7328248,76.8287066 66.0834876,76.9863841 C65.9885912,76.9954562 65.8933164,77 65.7979873,77 L16.0495024,76.9999956 C14.3926506,76.9999956 13.0495068,75.6568518 13.0495068,74 C13.0495068,73.9434873 13.0511037,73.8869859 13.0542955,73.8305635 C13.4917633,66.097245 16.1569979,58.1537239 21.0499992,50 C22.339145,47.8517605 23.6865931,45.7301913 25.0923434,43.6352925 C29.2176823,47.2966793 34.605392,49.5131458 40.5,49.5131458 C46.6467595,49.5131458 52.2423263,47.1029976 56.430072,43.1575556 Z M40.5,43 C30.8350169,43 23,35.1649831 23,25.5 C23,15.8350169 30.8350169,8 40.5,8 C50.1649831,8 58,15.8350169 58,25.5 C58,35.1649831 50.1649831,43 40.5,43 Z"/>
</svg>
