<svg xmlns="http://www.w3.org/2000/svg" width="80" height="80" viewBox="0 0 80 80">
  <path fill="#000000" fill-rule="evenodd" d="M63,7 L63,73 C63,75.209139 61.209139,77 59,77 L22,77 C19.790861,77 18,75.209139 18,73 L18,7 C18,4.790861 19.790861,3 22,3 L59,3 C61.209139,3 63,4.790861 63,7 Z M45,67 C45,65.8954305 44.1045695,65 43,65 L37,65 C35.8954305,65 35,65.8954305 35,67 L35,71.75 C35,72.8545695 35.8954305,73.75 37,73.75 L43,73.75 C44.1045695,73.75 45,72.8545695 45,71.75 L45,67 Z M57.5,13 C57.5,10.790861 55.709139,9 53.5,9 L27.5,9 C25.290861,9 23.5,10.790861 23.5,13 L23.5,58 C23.5,60.209139 25.290861,62 27.5,62 L53.5,62 C55.709139,62 57.5,60.209139 57.5,58 L57.5,13 Z"/>
</svg>
