<svg xmlns="http://www.w3.org/2000/svg" width="80" height="80" viewBox="0 0 80 80">
  <path fill="#000000" fill-rule="evenodd" d="M40,78 C19.0131795,78 2,60.9868205 2,40 C2,19.0131795 19.0131795,2 40,2 C60.9868205,2 78,19.0131795 78,40 C78,60.9868205 60.9868205,78 40,78 Z M58.7557704,55.263068 L43.5,41.0528278 L43.5,14 C43.5,12.0670034 41.9329966,10.5 40,10.5 C38.0670034,10.5 36.5,12.0670034 36.5,14 L36.5,44.0988499 L53.9846552,60.3852219 C55.399099,61.7027289 57.6137827,61.6241462 58.9312898,60.2097025 C60.2487968,58.7952588 60.1702141,56.5805751 58.7557704,55.263068 Z"/>
</svg>
