<svg xmlns="http://www.w3.org/2000/svg" width="80" height="80" viewBox="0 0 80 80">
  <g fill="none" fill-rule="evenodd">
    <path fill="#000000" d="M11.0729968,14 L12.7091187,12.5273493 C13.0830363,12.1907911 13.0984785,11.6304772 12.7436097,11.2758531 C12.3887409,10.921229 11.7979428,10.9065837 11.4240251,11.2431418 L7.37396428,14.8885457 C6.89321301,15.3212633 6.87335881,16.0416669 7.32961868,16.4976122 C7.37782117,16.5439774 7.37782117,16.5439774 7.42960757,16.5867256 L11.4673032,19.7934381 C11.8625337,20.1073277 12.4512331,20.0579199 12.7822,19.6830827 C13.113167,19.3082454 13.0610711,18.749922 12.6658406,18.4360324 L9.59853801,16 L16.4374723,16 C16.7481478,16 17,15.5522847 17,15 C17,14.4477153 16.7481478,14 16.4374723,14 L11.0729968,14 Z M7,7 L73,7 C75.209139,7 77,8.790861 77,11 L77,69 C77,71.209139 75.209139,73 73,73 L7,73 C4.790861,73 3,71.209139 3,69 L3,11 C3,8.790861 4.790861,7 7,7 Z M7,23 L7,65 C7,67.209139 8.790861,69 11,69 L69,69 C71.209139,69 73,67.209139 73,65 L73,23 L7,23 Z M22,11 C20.8954305,11 20,11.8954305 20,13 L20,18 C20,19.1045695 20.8954305,20 22,20 L71,20 C72.1045695,20 73,19.1045695 73,18 L73,13 C73,11.8954305 72.1045695,11 71,11 L22,11 Z"/>
    <path fill="#000000" d="M51.7822909,46.8791097 L51.7822909,59.5423892 C51.7822909,61.088582 50.5288539,62.3420189 48.9826611,62.3420189 L47.5828463,62.3420189 C46.0366535,62.3420189 44.7832165,61.088582 44.7832165,59.5423892 L44.7832165,46.8791097 L41.1994377,48.3186676 C40.4820538,48.6068314 39.6668963,48.2588799 39.3787324,47.541496 C39.2297375,47.1705732 39.2464247,46.7536474 39.4245875,46.395819 L47.0296704,31.1214997 C47.3742464,30.4294409 48.214605,30.1477505 48.9066638,30.4923265 C49.1792356,30.62804 49.4001235,30.848928 49.535837,31.1214997 L57.1409199,46.395819 C57.4854959,47.0878778 57.2038055,47.9282364 56.5117467,48.2728125 C56.1539183,48.4509752 55.7369925,48.4676624 55.3660697,48.3186676 L51.7822909,46.8791097 Z" transform="rotate(-27 48.283 46.342)"/>
  </g>
</svg>
