/* XPM */
static char * beer_xpm[] = {
"41 77 67 1",
" 	c None",
"#	c #38E361852081",
"$	c #08201C7128A2",
"%	c #000014510000",
"&	c #104000000000",
"*	c #79E78E389658",
"+	c #71C68E386185",
",	c #618571C679E7",
"-	c #B6DABEFB9E79",
".	c #186118612081",
"0	c #2081249230C2",
"1	c #514451445144",
"2	c #082028A21040",
"3	c #D75CE38DDF7D",
"4	c #CF3CD34CB6DA",
"5	c #28A238E338E3",
"6	c #965886179658",
"7	c #AEBABEFBBEFB",
"8	c #410345144103",
"9	c #8617861779E7",
":	c #79E77DF779E7",
";	c #69A6AAAAAEBA",
"<	c #69A669A66185",
"=	c #9E79A2899E79",
">	c #28A2451430C2",
"@	c #618571C62081",
"A	c #30C200000000",
"B	c #DF7DAAAA4103",
"C	c #DF7D79E730C2",
"D	c #DF7DCF3C9658",
"F	c #30C218611040",
"M	c #A69979E71040",
"N	c #B6DA71C61040",
"O	c #208134D31040",
"S	c #514414510820",
"V	c #E79D9A6930C2",
"X	c black",
"Z	c #861741031040",
"a	c #A699B2CAAEBA",
"b	c #EFBED34C5144",
"c	c #A69955550820",
"d	c #8E389A698E38",
"e	c #69A69248B6DA",
"f	c #28A23CF32081",
"g	c #208145141040",
"h	c #9E795D7530C2",
"i	c #9658AEBAA699",
"j	c #79E7410330C2",
"k	c #CF3C965830C2",
"l	c #186124921040",
"m	c #C71B9E799658",
"n	c #C71B61850820",
"o	c #000004100000",
"p	c #8E38AAAA9E79",
"q	c #596549241861",
"r	c #514400000820",
"s	c #4103410338E3",
"t	c #79E741035144",
"u	c #59655D7569A6",
"v	c #D75C79E71040",
"w	c #59651C712081",
"x	c #D75C79E71861",
"y	c #96588A2838E3",
"z	c #08200C300820",
"G	c blue",
"H	c sky blue",
"I	c #5378f4",
"                  .XXX                   ",
"                 oO+@#$                  ",
"                X%XXXX&X                 ",
"                $*=-;:>$                 ",
"                %,,<@1..                 ",
"                23415,6$                 ",
"                $7:2819$                 ",
"                07*qw<@$                 ",
"                0;ewrty5                 ",
"   ue*i=p664    $4a769*s                 ",
"  ,7a-=-ap-44   .e5u1s.8                 ",
" uaddddp;99344  0*s:,185                 ",
" i99diiiii;d44  0a,9::*u                 ",
" a9d;i==iip644  03=746=u                 ",
" a6dpiii=ipp-4  &005>.02                 ",
" a6=--aa77a-44  25%22O2X                 ",
" e,e;;;;e,,ee4 %u>f##fgX                 ",
" *hjj8hjhkjhq4 >8l##fggzl                ",
" =xcccv@<bnxcX%8lOf#fgOl.                ",
" mxMNMqu8BhkhXo5zgggggOOz$               ",
" mxMxkqwrVyVjzl$OOggOOOOOlX              ",
" mCvvyZttmVBjO#lg>ggOggfgl5              ",
" mCcNnZhxVckMA&XooX%%XXo$l0              ",
" mMZyyymbb<@hSO@@yydd;6@%g&              ",
" -Mqu:*3DD6uqSybby9::9p7@z&              ",
" -CcykhkxbVyMSMM#oXArAA,a%X              ",
" -VnxnvcCDkxnZZM%AZCZCZr9+X              ",
" DCNyhCqB4BNcc##&jmd$3=AwDX              ",
" DCcMMCSBDknM@M#Ah4>AtaqwmX              ",
" DVnNyCZBDBMcy@SSC-+t67mrmX              ",
" DCnvMNxbDBvhk@Xwh<<ud,1AtX              ",
" DVNNMxCBDkxMk@XfsXXXXoX.0X              ",
" DVNNcVnBbbCZkcXF111819808X              ",
" DVnNMVxBbbVZyySrjm=7479A6o              ",
" DbnNNvnBbVChZ@Zrh-@5,p<wmX              ",
" 34kNvNxBbVBZl#qAjm@s,9AwmX              ",
"  3bvxxVbbkkXo#@jrtd;esrt<X              ",
"   3<qccBZFX o%#ywrSqwAZmX2              ",
"    3$fqq$X  zlo#ywwwjhm+X>              ",
"     u6d3=%  Xlzo#77=m48Xo&              ",
"     ,:<78X  Xll.F2f#f2Ff>X              ",
"     ,:uasX  Xf:973333333mX              ",
"     <,1e,%  Xf1$>*99eepp9X              ",
"     uu1<*2  X01u=-3334aa9X              ",
"    Xf5s80&  Xl.AAww%FF2S2X              ",
"    ,ss8st9f %oz%zXXXXXXoXX              ",
" 1ia=u8sss:i:8l&%z%z%%%z%%X              ",
".s008+9++dd,<6:0X&oozzzzo&zX             ",
"                                         ",
"                                         ",
"                                         ",
"          GGGGGGGGGGGGGGGGGGGGGGGGGGGGG  ",
"           GHHHHHHHHHHHHHHHHHHHHHHHHHHG  ",
"            GHHHHHHHHHHHHHHHHHHHHHHHHHG  ",
"            GHHHHHHHHHHHHHHHHHHHHHHHHHG  ",
"            GHHHHHHHHHHHHHHHHHHHHHHHHHI  ",
" G          GHHHHHHHHHHHHHHHHHHHHHHHHHIH ",
"GHGG        GHHGGGGHGGGGHGGGHHGGIHHHHHIH ",
"GHHHGGGGG    GHHGGHHHGGHHHGHHIGIIHHHHHII ",
" GHHHHHHHG   GHHGGHHHGGHHHGHHGGHGHHHHHHG ",
"  GHHHHHHG  GHHHGGHHHGGHHHGHIGIHIIHHHHHG ",
"  GHHHHHHG  GHHHIGIHIIGIHIIHIGIHIIHHHHHG ",
"  GHHHHHHG  GHHHIGIHIIGIHIIHGGHHHGHHHHHG ",
"  GGHHHHHG  GHHHHGGHGHGGHGHHGGHHHGHHHHHG ",
"   GHHHHG  GHHHHHGGHGHGGHGHIGGGGGIIHHHHG ",
"   GHHHHG  GHHHHHIGIGHIGIIHIGHHHHIIHHHHG ",
"   GHHHHHGGHHHHHHIGGIHIGIIHGGHHHHHGHHHHG ",
"   GHHHHHHHHHHHHHHGGHHHGGHGGGGHHHGGGHHHG ",
"   GHHHHHHHHHHHHHHHHHHHHHHHHHHHHHHHHHHHG ",
"   GHHHHHHHHHHHHHHHHHHHHHHHHHHHHHHHHHHHI ",
"   GHHHHHHHHHHHHHHHHHHHHHHHHHHHHHHHHHHHIH",
"   GGGGHHHHHHHHHHHHHHHHHHHHHHHHHHHHHHHHIH",
"       GGHHHHHHHHHHHHHHHHHHHHHHHHHHHHHHHG",
"         GHHHHHHHHHHHHHHHHHHGGGGGGGGGGGGG",
"          GHHHHHHHHHHHHHHGGG             ",
"          GHHHHGGGHHGGGGG                ",
"          GGGGG   GG                     "};
