/* XPM */
static char * ff_xpm[] = {
/* width height num_colors chars_per_pixel */
"43 70 248 3",
/* colors */
"   	c None",
".  	c #eaf4f4",
"X  	c #dbe7ed",
"o  	c #a7b1d1",
"O  	c #3c4a7c",
"+  	c #9aabb6",
"@  	c #98acd4",
"#  	c #49557c",
"$  	c #9ea262",
"%  	c #dcd3ac",
"&  	c #a7a9b5",
"*  	c #b4b644",
"=  	c #ded446",
"-  	c #ece490",
";  	c #d2e5c8",
":  	c #b4e4bc",
">  	c #d1c381",
",  	c #c8ba2c",
"<  	c #ddcb35",
"1  	c #e9e54c",
"2  	c #64c474",
"3  	c #24a834",
"4  	c #04ae3b",
"5  	c #07a239",
"6  	c #4caa64",
"7  	c #9cd6a4",
"8  	c #e8c8d4",
"9  	c #bcb468",
"0  	c #efd941",
"q  	c #e0d67c",
"w  	c #eee7c1",
"e  	c #a4eaa4",
"r  	c #1cc24c",
"t  	c #04ca45",
"y  	c #04bb41",
"u  	c #059733",
"i  	c #84c28c",
"p  	c #d2cbb0",
"a  	c #ccbe64",
"s  	c #7793af",
"d  	c #88acd4",
"f  	c #b7d3e4",
"g  	c #d4f4d4",
"h  	c #34d25c",
"j  	c #04e34f",
"k  	c #189534",
"l  	c #c4ae23",
"z  	c #1c4ea4",
"x  	c #0c62e4",
"c  	c #296dc7",
"v  	c #748ee4",
"b  	c #94bbd9",
"n  	c #4cae94",
"m  	c #04d444",
"M  	c #068a32",
"N  	c #b0a458",
"B  	c #b8b0b8",
"V  	c #5c78b8",
"C  	c #4476e4",
"Z  	c #3c84c8",
"A  	c #177d99",
"S  	c #04792f",
"D  	c #066b20",
"F  	c #f6ea51",
"G  	c #f8f17c",
"H  	c #b7b587",
"J  	c #babdca",
"K  	c #377391",
"L  	c #056c80",
"P  	c #3c7cd0",
"I  	c #146084",
"U  	c #046a44",
"Y  	c #0e5b1a",
"T  	c #a6a124",
"R  	c #fbf536",
"E  	c #a46a4c",
"W  	c #7c5a3c",
"Q  	c #d6cdd2",
"!  	c #05795f",
"~  	c #fce92e",
"^  	c #f49ea4",
"/  	c #ea5f4e",
"(  	c #a24a46",
")  	c #24620c",
"_  	c #f48a84",
"`  	c #a8543c",
"'  	c #af6e6f",
"]  	c #bc8e84",
"[  	c #4c571c",
"{  	c #1c7e1c",
"}  	c #27771f",
"|  	c #89861f",
" . 	c #a6961a",
"...	c #e87868",
"X..	c #973309",
"o..	c #740808",
"O..	c #782306",
"+..	c #484a10",
"@..	c #1c8420",
"#..	c #3c5a0c",
"$..	c #726f1c",
"%..	c #8c9224",
"&..	c #b8a626",
"*..	c #9d8417",
"=..	c #948516",
"-..	c #8e7d15",
";..	c #fcd2d4",
":..	c #8c3e0c",
">..	c #7c4a54",
",..	c #914939",
"<..	c #943a34",
"1..	c #793919",
"2..	c #345014",
"3..	c #44380c",
"4..	c #5c2a04",
"5..	c #771807",
"6..	c #8a4b16",
"7..	c #9f8b18",
"8..	c #d7c3b9",
"9..	c #dc6a5c",
"0..	c #d95e54",
"q..	c #cca8a0",
"w..	c #f1dbd7",
"e..	c #8996af",
"r..	c #513751",
"t..	c #8c660c",
"y..	c #a85a5c",
"u..	c #c5c5d0",
"i..	c #26afec",
"p..	c #0796e3",
"a..	c #0496c4",
"s..	c #248ec4",
"d..	c #706664",
"f..	c #cc867c",
"g..	c #84cef4",
"h..	c #14aae4",
"j..	c #04ade6",
"k..	c #05baf9",
"l..	c #07a2f3",
"z..	c #0483c5",
"x..	c #3c7a5c",
"c..	c #89250c",
"v..	c #9e7a18",
"b..	c #bc5a54",
"n..	c #bc3418",
"m..	c #d44a3c",
"M..	c #06c4fb",
"N..	c #047b93",
"B..	c #1c724c",
"V..	c #a24618",
"C..	c #a4923c",
"Z..	c #e4def4",
"A..	c #a8c4dc",
"S..	c #c8cdd5",
"D..	c #cc9a8c",
"F..	c #943028",
"G..	c #cc705c",
"H..	c #1c9af4",
"J..	c #048569",
"K..	c #285294",
"L..	c #0e3994",
"P..	c #3c5a9c",
"I..	c #c8e2f0",
"U..	c #677aa9",
"Y..	c #546398",
"T..	c #50a0d8",
"R..	c #a88c98",
"E..	c #d4b6b4",
"W..	c #4c8e34",
"Q..	c #8f570c",
"!..	c #ac7630",
"~..	c #c6d7dc",
"^..	c #4c72b4",
"/..	c #286294",
"(..	c #079fdf",
")..	c #058bdf",
"_..	c #4f6d97",
"`..	c #ca5e4a",
"'..	c #895e57",
"]..	c #b8c4d1",
"[..	c #0c84ac",
"{..	c #446c20",
"}..	c #9c220c",
"|..	c #c4baa4",
" X.	c #05b0f7",
".X.	c #3c6787",
"XXX	c #6a8aaf",
"oXX	c #066fae",
"OXX	c #045b30",
"+XX	c #2c4a60",
"@XX	c #ac6c24",
"#XX	c #948a4c",
"$XX	c #9ca0af",
"%XX	c #68c0ec",
"&XX	c #0cdefc",
"*XX	c #0cd1fa",
"=XX	c #055187",
"-XX	c #4979a1",
";XX	c #085c93",
":XX	c #ac620c",
">XX	c #c48224",
",XX	c #548e74",
"<XX	c #3884a4",
"1XX	c #5993c1",
"2XX	c #91a0aa",
"3XX	c #abafb9",
"4XX	c #74cef4",
"5XX	c #24d6fc",
"6XX	c #097ac9",
"7XX	c #989aac",
"8XX	c #4792af",
"9XX	c #a59fab",
"0XX	c #b4520c",
"qXX	c #046c9c",
"wXX	c #8c6a2c",
"eXX	c #0462a2",
"rXX	c #88a9b4",
"tXX	c #a47a80",
"yXX	c #5879a1",
"uXX	c #2a6b9a",
"iXX	c #98d4f4",
"pXX	c #045d5f",
"aXX	c #a4666c",
"sXX	c #746a7c",
"dXX	c #2c9adc",
"fXX	c #0477b6",
"gXX	c #049254",
"hXX	c #34922c",
"jXX	c #2c9ec8",
"kXX	c #50aee8",
"lXX	c #447a44",
"zXX	c #74460c",
"xXX	c #74a0c0",
"cXX	c #cc6e34",
"vXX	c #6caed4",
"bXX	c #046964",
"nXX	c #5c661c",
"mXX	c #24869c",
"MXX	c #1c6a88",
"NXX	c #4e87a2",
"BXX	c #aab8c2",
"VXX	c #d6d7dc",
"CXX	c #788ab0",
"ZXX	c #082e90",
"AXX	c #3c6eb4",
"yyy	c blue",
"xxx	c sky blue",
"ooo	c #5378f4",
/* pixels */
"            .  X                                                                                                                 ",
"            o  O  +                                                                                                              ",
"            @  #  $  %                                                                                                           ",
"               &  *  =  -                                            ;  :  ;                                                     ",
"                  >  ,  <  1  -                                :  2  3  4  5  6  7                                               ",
"                     8  9  =  1  0  q  w                    e  r  t  t  y  4  5  u  i                                            ",
"                           p  a  =  1  q  s  d  f        g  h  j  j  t  y  4  4  4  k                                            ",
"                                 >  l  $  z  x  c  v  b  n  4  m  t  y  5  5  y  t  M  ;                                         ",
"                                    N  B  V  c  C  C  Z  A  S  M  5  4  4  4  t  4  D  *  F  G  G                                ",
"                                 H  $  ;     J  K  L  P  I  U  M  M  u  4  y  t  u  Y  T  1  R  R  F  G                          ",
"                              8  E  W  Q     i  5  5  !  !  u  5  5  4  t  y  4  M  Y  T  ~  R  ~  ~  ~  F  G                    ",
"                              ^  /  (  8  g  u  t  j  m  t  y  y  y  t  y  4  u  D  )  ,  R  R  ~  ~  ~  ~  ~  =  %              ",
"                              _  /  `  '  ]  [  3  t  t  t  y  y  4  4  5  k  {  }  |  <  R  ~  ~  0  <  <  l   . 9              ",
"                              .../  X..o..o..O..+..}  5  u  @..{  }  )  #..[  $..%..T  <  R  =  ,  &.. . *..=..-..>              ",
"                           ;../  /  :..>..,..<..1..+..2..2..3..3..4..5..5..O..6..-..7..,  <   . *..-..*..=..-..|  w              ",
"                           8..9..0..q..   =  w..w..Q  8..B  e..O  r..>..1..5..O..t..=.. . l  7..*..*..=..=..=..$                 ",
"                           q..`  y..u..                  =  i..p..a..s..d..6..5..6..-.. . l   . *..7..=..*..-..H                 ",
"                        ;..f..(  W  X                 g..h..j..k..l..z..x..$..c..:..v..7..l   . 7..=..7..=..=..%                 ",
"                     w..b..n..m..'                 =  i..k..M..j..N..L  B..-..c..V..-..*..&..&..*..=..7..-..C..w                 ",
"Z..A..S..            D..F..]  G.....w..            f  H..k..M..N..J..M  Y  $..6..V..v..v..&..&..*..*..=..*..N                    ",
"u..K..L..P..S..   I..U..Y..T..R..G..E..            A..p..k..p..J..W..Q..:..$..Q..V..!..-..&..&..7..=..=..|  >                    ",
"   ~..^..L../..T..i..(..p..).._..`..'..]..         ~..[..p..z..!  {..:..}..:..V..X..!..-..T  &..7..v..=..-..|..                  ",
"         b  p.. X.M..k.. X.l..V  m..r...X.I..      =  XXXoXXz..L  OXX+XXr..c..}..c..@XXv.. . l  7..*..7..#XX$XX&  Q              ",
"         %XXM..&XX*XX X.p..p..Y..9..#  =XX-XXX  =  =  =  Z  ;XX;XX;XX;XX_..'  (  o..V..:XX>XXl   . |  ,XX<XX<XX1XX2XX3XXS..      ",
"      4XXj..5XX*XXk..l..6XXoXXd..`..+XX;XX=XX+  ,  ,  =  =  7XX-XX8XX3XXC..C..9XXy..F..X..0XX>XX#XX8XXH..a..p..6XXP  s  $XX3XXQ  ",
"   X  k..M..*XXk..l..z..qXX!  wXX`..+XXeXX=XXrXX,  ,  ,  ,  ,  ,  ,  ,  C..C..C..9XXtXX(  n..n..yXXj.. X.k..j..)..6XXuXXs  &  u..",
"   iXXj..M..k..k..z..L  M  k  @XX(  pXXqXX=XXrXXa  C..C..C..,  ,  ,  C..C..C..C..C..C..R..aXXsXXdXXk..M..M..a..fXXL  ;XX1XXZ..a  ",
"   %XX X.k.. X.p..qXXgXX4  hXX`..6..OXXqXX=XXrXXa  =  =  C..C..C..C..C..C..C..C..C..C..C..C..jXX X. X.*XX(..N..J..S  pXX1XX      ",
"   kXXk.. X.j..z..!  5  5  lXX0..zXXOXX[..;XX]..a  a  =  C..C..C..C..C..C..C..,  ,  a  a  a  jXXl..k..j..N..gXXM  S  pXXxXX      ",
"   T.. X.l..l..oXX!  u  u  {..cXX[  pXXoXXuXX~..a  #XX#XX#XX#XX#XX#XX#XX#XX,  =  =  =  =  =  1XX).. X.p..!  u  S  D  =XXd        ",
"   vXXp..l..)..qXXbXXS  S  )  nXXlXXmXXeXXK  #XX#XX#XX#XX#XXa  a  a  #XX#XX=  =  =  =  =  =  xXXoXXp..z..L  S  D  OXX/..rXXQ  a  ",
"   A..fXXp..6XXfXXpXXU  OXXY  OXX,XXMXX;XXs  #XX#XX#XX#XXa        a  a  a  a  a  a  a  =  =  I..K  eXXfXXqXXbXXOXX;XXyXX2XXJ  a  ",
"      Z  fXXfXXfXXeXXL  bXXbXXA  8XX.X.XXX#XX#XX#XX#XXa                 a  a  a  a  =  =  =  a  A...X.;XX;XX;XXI  NXXBXXVXXa  a  ",
"      f  uXXeXX;XXqXXeXXfXXoXX;XX/.._..yXXCXX#XX#XXa  a                          a  a  a  a  a  a  S..s  -XXXXX@  a  a           ",
"         f  K  =XX=XX=XX;XX=XXK  -XXK..ZXXL..V  a                                            a        a  a  a                    ",
"         a  o  XXXyXX-XXU..2XXa  a  a  AXXL..ZXXyXXa                                                                             ",
"         a  a  a  a  a  a  a           a  CXXP..Y..a                                                                             ",
"                                       a  #XX#XX#XXa                                                                             ",
"                                       a  #XX#XX#XX#XXa                                                                          ",
"                                          a  #XX#XX#XXa  a                                                                       ",
"                                             a  a                                                                                ",
"                                                                                                                                 ",
"                                                                                                                                 ",
"                                                                                                                                 ",
"                              yyyyyyyyyyyyyyyyyyyyyyyyyyyyyyyyyyyyyyyyyyyyyyyyyyyyyyyyyyyyyyyyyyyyyyyyyyyyyyyyyyyyyyy            ",
"                                 yyyxxxxxxxxxxxxxxxxxxxxxxxxxxxxxxxxxxxxxxxxxxxxxxxxxxxxxxxxxxxxxxxxxxxxxxxxxxxxxxyyy            ",
"                                    yyyxxxxxxxxxxxxxxxxxxxxxxxxxxxxxxxxxxxxxxxxxxxxxxxxxxxxxxxxxxxxxxxxxxxxxxxxxxxyyy            ",
"                                    yyyxxxxxxxxxxxxxxxxxxxxxxxxxxxxxxxxxxxxxxxxxxxxxxxxxxxxxxxxxxxxxxxxxxxxxxxxxxxyyy            ",
"                                    yyyxxxxxxxxxxxxxxxxxxxxxxxxxxxxxxxxxxxxxxxxxxxxxxxxxxxxxxxxxxxxxxxxxxxxxxxxxxxooo            ",
"   yyy                              yyyxxxxxxxxxxxxxxxxxxxxxxxxxxxxxxxxxxxxxxxxxxxxxxxxxxxxxxxxxxxxxxxxxxxxxxxxxxxoooxxx         ",
"yyyxxxyyyyyy                        yyyxxxxxxyyyyyyyyyyyyxxxyyyyyyyyyyyyxxxyyyyyyyyyxxxxxxyyyyyyoooxxxxxxxxxxxxxxxoooxxx         ",
"yyyxxxxxxxxxyyyyyyyyyyyyyyy            yyyxxxxxxyyyyyyxxxxxxxxxyyyyyyxxxxxxxxxyyyxxxxxxoooyyyooooooxxxxxxxxxxxxxxxoooooo         ",
"   yyyxxxxxxxxxxxxxxxxxxxxxyyy         yyyxxxxxxyyyyyyxxxxxxxxxyyyyyyxxxxxxxxxyyyxxxxxxyyyyyyxxxyyyxxxxxxxxxxxxxxxxxxyyy         ",
"      yyyxxxxxxxxxxxxxxxxxxyyy      yyyxxxxxxxxxyyyyyyxxxxxxxxxyyyyyyxxxxxxxxxyyyxxxoooyyyoooxxxooooooxxxxxxxxxxxxxxxyyy         ",
"      yyyxxxxxxxxxxxxxxxxxxyyy      yyyxxxxxxxxxoooyyyoooxxxooooooyyyoooxxxooooooxxxoooyyyoooxxxooooooxxxxxxxxxxxxxxxyyy         ",
"      yyyxxxxxxxxxxxxxxxxxxyyy      yyyxxxxxxxxxoooyyyoooxxxooooooyyyoooxxxooooooxxxyyyyyyxxxxxxxxxyyyxxxxxxxxxxxxxxxyyy         ",
"      yyyyyyxxxxxxxxxxxxxxxyyy      yyyxxxxxxxxxxxxyyyyyyxxxyyyxxxyyyyyyxxxyyyxxxxxxyyyyyyxxxxxxxxxyyyxxxxxxxxxxxxxxxyyy         ",
"         yyyxxxxxxxxxxxxyyy      yyyxxxxxxxxxxxxxxxyyyyyyxxxyyyxxxyyyyyyxxxyyyxxxoooyyyyyyyyyyyyyyyooooooxxxxxxxxxxxxyyy         ",
"         yyyxxxxxxxxxxxxyyy      yyyxxxxxxxxxxxxxxxoooyyyoooyyyxxxoooyyyooooooxxxoooyyyxxxxxxxxxxxxooooooxxxxxxxxxxxxyyy         ",
"         yyyxxxxxxxxxxxxxxxyyyyyyxxxxxxxxxxxxxxxxxxoooyyyyyyoooxxxoooyyyooooooxxxyyyyyyxxxxxxxxxxxxxxxyyyxxxxxxxxxxxxyyy         ",
"         yyyxxxxxxxxxxxxxxxxxxxxxxxxxxxxxxxxxxxxxxxxxxyyyyyyxxxxxxxxxyyyyyyxxxyyyyyyyyyyyyxxxxxxxxxyyyyyyyyyxxxxxxxxxyyy         ",
"         yyyxxxxxxxxxxxxxxxxxxxxxxxxxxxxxxxxxxxxxxxxxxxxxxxxxxxxxxxxxxxxxxxxxxxxxxxxxxxxxxxxxxxxxxxxxxxxxxxxxxxxxxxxxyyy         ",
"         yyyxxxxxxxxxxxxxxxxxxxxxxxxxxxxxxxxxxxxxxxxxxxxxxxxxxxxxxxxxxxxxxxxxxxxxxxxxxxxxxxxxxxxxxxxxxxxxxxxxxxxxxxxxooo         ",
"         yyyxxxxxxxxxxxxxxxxxxxxxxxxxxxxxxxxxxxxxxxxxxxxxxxxxxxxxxxxxxxxxxxxxxxxxxxxxxxxxxxxxxxxxxxxxxxxxxxxxxxxxxxxxoooxxx      ",
"         yyyyyyyyyyyyxxxxxxxxxxxxxxxxxxxxxxxxxxxxxxxxxxxxxxxxxxxxxxxxxxxxxxxxxxxxxxxxxxxxxxxxxxxxxxxxxxxxxxxxxxxxxxxxoooxxx      ",
"                     yyyyyyxxxxxxxxxxxxxxxxxxxxxxxxxxxxxxxxxxxxxxxxxxxxxxxxxxxxxxxxxxxxxxxxxxxxxxxxxxxxxxxxxxxxxxxxxxxxxyyy      ",
"                           yyyxxxxxxxxxxxxxxxxxxxxxxxxxxxxxxxxxxxxxxxxxxxxxxxxxxxxxxyyyyyyyyyyyyyyyyyyyyyyyyyyyyyyyyyyyyyyy      ",
"                              yyyxxxxxxxxxxxxxxxxxxxxxxxxxxxxxxxxxxxxxxxxxxyyyyyyyyy                                             ",
"                              yyyxxxxxxxxxxxxyyyyyyyyyxxxxxxyyyyyyyyyyyyyyy                                                      ",
"                              yyyyyyyyyyyyyyy         yyyyyy                                                                     "};
