/* XPM */
static char * rose_xpm[] = {
"32 12 6 1",
" 	c None",
".	c #00c000",
",      c #008000",
"X	c #ff4080",
"o	c #ff80c0",
"O	c #c00040",
"           ....         XXoXX   ",
"          ....,      OOoXoXXX X ",
"         ....,       ooXoXXooXX ",
"    .    ,..,         oXoXOOooXX",
"......    ,,         XoXXXoOXoX ",
",,,,,,....    .  ....oXXXoooXX X",
"      ,,,,.......,,,,XooOOoOOXXX",
"      .   ,,,,,,,    OXXXXOOXoXO",
"      ...  .     ...  OoXooooOO ",
"      ,...       ,... O XXOOOO  ",
"       ,...       ,...   oXO    ",
"        ,,,        ,,,   ooo    "};
