/* XPM */
static char * washington_xpm[] = {
/* width height num_colors chars_per_pixel */
"41 34 4 1",
/* colors */
" 	c None",
".	c blue",
"X	c sky blue",
"o	c #5378f4",
/* pixels */
"                                         ",
"                                         ",
"                                         ",
"          .............................  ",
"           .XXXXXXXXXXXXXXXXXXXXXXXXXX.  ",
"            .XXXXXXXXXXXXXXXXXXXXXXXXX.  ",
"            .XXXXXXXXXXXXXXXXXXXXXXXXX.  ",
"            .XXXXXXXXXXXXXXXXXXXXXXXXXo  ",
" .          .XXXXXXXXXXXXXXXXXXXXXXXXXoX ",
".X..        .XX....X....X...XX..oXXXXXoX ",
".XXX.....    .XX..XXX..XXX.XXo.ooXXXXXoo ",
" .XXXXXXX.   .XX..XXX..XXX.XX..X.XXXXXX. ",
"  .XXXXXX.  .XXX..XXX..XXX.Xo.oXooXXXXX. ",
"  .XXXXXX.  .XXXo.oXoo.oXooXo.oXooXXXXX. ",
"  .XXXXXX.  .XXXo.oXoo.oXooX..XXX.XXXXX. ",
"  ..XXXXX.  .XXXX..X.X..X.XX..XXX.XXXXX. ",
"   .XXXX.  .XXXXX..X.X..X.Xo.....ooXXXX. ",
"   .XXXX.  .XXXXXo.o.Xo.ooXo.XXXXooXXXX. ",
"   .XXXXX..XXXXXXo..oXo.ooX..XXXXX.XXXX. ",
"   .XXXXXXXXXXXXXX..XXX..X....XXX...XXX. ",
"   .XXXXXXXXXXXXXXXXXXXXXXXXXXXXXXXXXXX. ",
"   .XXXXXXXXXXXXXXXXXXXXXXXXXXXXXXXXXXXo ",
"   .XXXXXXXXXXXXXXXXXXXXXXXXXXXXXXXXXXXoX",
"   ....XXXXXXXXXXXXXXXXXXXXXXXXXXXXXXXXoX",
"       ..XXXXXXXXXXXXXXXXXXXXXXXXXXXXXXX.",
"         .XXXXXXXXXXXXXXXXXX.............",
"          .XXXXXXXXXXXXXX...             ",
"          .XXXX...XX.....                ",
"          .....   ..                     ",
"                                         ",
"                                         ",
"                                         ",
"                                         ",
"                                         "};
