<?xml version="1.0" encoding="UTF-8" standalone="no"?>
<svg
   xmlns:dc="http://purl.org/dc/elements/1.1/"
   xmlns:cc="http://creativecommons.org/ns#"
   xmlns:rdf="http://www.w3.org/1999/02/22-rdf-syntax-ns#"
   xmlns:svg="http://www.w3.org/2000/svg"
   xmlns="http://www.w3.org/2000/svg"
   xmlns:sodipodi="http://sodipodi.sourceforge.net/DTD/sodipodi-0.dtd"
   xmlns:inkscape="http://www.inkscape.org/namespaces/inkscape"
   version="1.1"
   id="svg2"
   xml:space="preserve"
   width="971.78668"
   height="854.4267"
   viewBox="0 0 971.78668 854.4267"
   sodipodi:docname="Color Bike Loud logo (1).eps"><metadata
     id="metadata8"><rdf:RDF><cc:Work
         rdf:about=""><dc:format>image/svg+xml</dc:format><dc:type
           rdf:resource="http://purl.org/dc/dcmitype/StillImage" /></cc:Work></rdf:RDF></metadata><defs
     id="defs6" /><sodipodi:namedview
     pagecolor="#ffffff"
     bordercolor="#666666"
     borderopacity="1"
     objecttolerance="10"
     gridtolerance="10"
     guidetolerance="10"
     inkscape:pageopacity="0"
     inkscape:pageshadow="2"
     inkscape:window-width="640"
     inkscape:window-height="480"
     id="namedview4" /><g
     id="g10"
     inkscape:groupmode="layer"
     inkscape:label="ink_ext_XXXXXX"
     transform="matrix(1.3333333,0,0,-1.3333333,0,854.42667)"><g
       id="g12"
       transform="scale(0.1)"><path
         d="m 2428.05,2672.95 c -30.27,-56.76 -64.9,-111.47 -103.99,-163.5 -238.87,-318.23 -630.27,-518.06 -1032.18,-518.06 -522.939,0 -1030.29,346.72 -1215.2823,856.04 -146.3047,402.85 -80.96489,877.38 178.3793,1227.17 238.207,321.26 626.89,522.35 1032.693,524.32 2.79,0 5.59,0 8.38,0 201.13,-0.94 400.3,-52.47 579.46,-144.73 L 1454.4,4270.34 c -54.4,9.21 -109.82,13.78 -165.71,13.7 -245.29,-1.18 -488.772,-99.03 -667.194,-268.63 -244.305,-232.19 -356.996,-593.04 -287.25,-925.87 78.567,-374.91 391.832,-693.21 775.554,-766.19 298.82,-56.87 621.69,36.09 846.01,245.45 34.56,32.32 66.6,67.15 95.88,104.15 h 376.36 v 0"
         style="fill:#edb140;fill-opacity:1;fill-rule:evenodd;stroke:none"
         id="path14" /><path
         d="m 6538.28,3254.97 305.08,-110.6 c -35.74,-297.57 -170.39,-584.9 -394.23,-797.72 -295.44,-280.83 -725.41,-409.3 -1128.26,-332.63 -372.82,70.93 -705.38,318.93 -892.3,656.21 l 377.66,1.73 c 143.9,-176.33 346.61,-305.47 573.48,-348.61 405.45,-77.15 849.04,130.4 1048.12,510.82 67.9,129.69 104.7,274.61 110.45,420.8 v 0"
         style="fill:#edb140;fill-opacity:1;fill-rule:evenodd;stroke:none"
         id="path16" /><path
         d="m 2317.88,4905.97 -291.7,-41.76 c -101.31,-12.09 -198.1,86.12 -176.33,188.57 13.3,62.47 67.82,112.45 131.7,123.12 l 891.78,127.69 c 5.16,0.63 10.51,1.85 29.44,1.45 93.49,-6.45 169.69,-103.55 145.17,-197.23 -15.63,-59.51 -69.32,-105.76 -129.97,-115.92 l -283.91,-40.66 53.85,-149.6 -290.32,-115.25 -79.71,219.59 v 0"
         style="fill:#edb140;fill-opacity:1;fill-rule:evenodd;stroke:none"
         id="path18" /><path
         d="m 6500.96,5659.99 c 78.84,-5.86 138.12,-93.71 109.74,-168.7 -5.08,-13.42 -12.48,-25.93 -21.8,-36.84 -4.14,-4.84 -8.74,-9.29 -13.51,-13.54 l -467,-402.02 c -49.56,-41.05 -129.42,-36.96 -172.72,9.6 -44.2,47.55 -43.25,130.13 6.42,176.3 1.14,1.1 2.36,2.12 3.54,3.18 L 6412.64,5630 c 20.98,17.36 46.88,28.38 73.96,29.99 9.29,0.55 11.41,0.12 14.36,0 v 0"
         style="fill:#5fb1e6;fill-opacity:1;fill-rule:evenodd;stroke:none"
         id="path20" /><path
         d="m 6367.06,3903.43 c 12.52,-0.79 24.8,-3.19 36.72,-7.21 l 580.06,-208.09 c 59.43,-22.75 94.93,-92.11 77.73,-151.86 -18.18,-63.33 -91.16,-105.09 -156.89,-84.66 -1.73,0.51 -3.42,1.14 -5.11,1.69 l -580.02,208.1 c -61.32,23.5 -96.47,96.35 -76.16,157.01 17.04,50.89 69.47,86.2 123.67,85.02 v 0"
         style="fill:#5fb1e6;fill-opacity:1;fill-rule:evenodd;stroke:none"
         id="path22" /><path
         d="m 7175.28,4848.9 c 81.68,-8.86 139.22,-105.21 101.08,-180.67 -15.51,-30.58 -44.08,-53.25 -77.07,-63.6 L 6364.66,4366.1 c -67.74,-17.47 -142.88,28.11 -156.5,95.02 -12.39,60.73 26.02,125.44 87.93,144.85 l 834.68,238.56 c 14.48,3.74 29.32,5.23 44.51,4.37 v 0"
         style="fill:#5fb1e6;fill-opacity:1;fill-rule:evenodd;stroke:none"
         id="path24" /><path
         d="m 1721.02,3795.97 119.94,-605.32 H 5605.72 L 5139.93,5283.67 C 4000.29,4787.77 2860.66,4291.87 1721.02,3795.97 Z M 3061,2307.14 c 5.55,-19.02 27,-31.37 46.21,-26.57 84.55,21.72 168.07,47.23 252.1,70.81 19.57,5.51 32.12,27.59 26.85,47.11 l -134.1,477.28 h -350.78 c 53.25,-189.56 105.84,-379.27 159.72,-568.63 z m -486.92,568.63 h -862.46 c -23.93,2.76 -48.22,5.67 -69.67,16.26 -32.59,16.09 -59,43.65 -73.76,76.32 -4.96,10.9 -7.32,22.83 -11.02,34.28 l -169.68,856.56 c -1.97,23.65 -3.82,47.7 2.16,70.49 9.05,34.68 30.31,65.69 58.73,86.71 9.48,7.05 20.5,11.81 30.74,17.75 l 3710.21,1614.44 c 32.98,10.19 33.14,10.23 67.54,12.99 11.45,-1.62 22.87,-3.23 34.28,-4.84 21.69,-8.15 43.61,-16.53 61.32,-31.18 26.61,-22.04 41.96,-53.84 53.34,-87.14 l 549.9,-2470.99 c 3.34,-30.82 6.85,-39.13 -0.32,-69.87 -10.58,-45.54 -42.62,-85.84 -85.21,-106.27 -28.5,-13.66 -37.35,-12.04 -68.13,-15.51 H 3579.3 c 37,-131.31 74.03,-262.61 110.52,-394.07 47.43,-175.23 -54.04,-377.74 -242.93,-432.77 -85.14,-24.2 -170.39,-48.14 -255.68,-71.83 -175.12,-47.39 -379.24,58.96 -432.77,242.93 -62.15,218.41 -123.55,436.98 -184.36,655.74 v 0"
         style="fill:#5fb1e6;fill-opacity:1;fill-rule:evenodd;stroke:none"
         id="path26" /><path
         d="m 7190.44,1244.29 h -393.45 v -86.51 h 141.07 v -90.92 c 0,-24.64 3.58,-45.58 10.74,-62.82 7.17,-17.282 16.62,-31.329 28.38,-42.161 11.73,-10.859 25.23,-18.731 40.51,-23.688 15.23,-4.961 30.74,-7.441 46.56,-7.441 16.14,0 31.76,2.48 46.84,7.441 15.03,4.957 28.45,12.829 40.22,23.688 11.73,10.832 21.22,24.879 28.38,42.161 7.17,17.24 10.75,38.18 10.75,62.82 v 177.43 z m -185.15,-86.51 h 117.92 v -67.23 c 0,-9.92 -0.75,-19.48 -2.2,-28.65 -1.5,-9.21 -4.33,-17.28 -8.55,-24.25 -4.25,-7.01 -10.19,-12.59 -17.9,-16.81 -7.72,-4.25 -17.83,-6.33 -30.31,-6.33 -12.52,0 -22.59,2.08 -30.31,6.33 -7.71,4.22 -13.7,9.8 -17.91,16.81 -4.25,6.97 -7.08,15.04 -8.54,24.25 -1.49,9.17 -2.2,18.73 -2.2,28.65 v 67.23 0"
         style="fill:#5fb1e6;fill-opacity:1;fill-rule:nonzero;stroke:none"
         id="path28" /><path
         d="M 7190.44,809.008 H 6796.99 V 639.289 c 0,-30.109 5.04,-56.289 15.16,-78.527 10.07,-22.242 23.97,-40.774 41.6,-55.653 17.63,-14.879 38.57,-25.98 62.82,-33.339 24.25,-7.36 50.7,-11.02 79.35,-11.02 32.67,0 61.16,4.488 85.41,13.5 24.25,9.012 44.44,21.488 60.62,37.469 16.13,15.98 28.26,34.91 36.36,56.761 8.07,21.84 12.13,45.461 12.13,70.809 v 169.719 z m -320.71,-86.52 h 247.97 v -61.707 c 0,-21.301 -3.03,-39.211 -9.09,-53.73 -6.06,-14.52 -14.8,-26.18 -26.18,-34.992 -11.41,-8.821 -25.07,-15.161 -41.05,-19.008 -15.98,-3.86 -33.89,-5.793 -53.73,-5.793 -21.68,0 -40.07,2.762 -55.1,8.273 -15.08,5.508 -27.28,12.867 -36.64,22.039 -9.37,9.168 -16.1,19.641 -20.12,31.41 -4.05,11.77 -6.06,23.891 -6.06,36.372 v 77.136 0"
         style="fill:#5fb1e6;fill-opacity:1;fill-rule:nonzero;stroke:none"
         id="path30" /><path
         d="M 7003.08,236.508 6796.99,373.719 V 276.738 L 6933.1,189.121 6796.99,103.16 V 0.121094 L 7002.53,137.32 7190.44,11.1406 v 94.7774 l -125.64,79.902 125.64,77.141 V 363.25 L 7003.08,236.508 v 0"
         style="fill:#5fb1e6;fill-opacity:1;fill-rule:nonzero;stroke:none"
         id="path32" /><path
         d="M 35.1094,14.9883 V 1257.75 H 352.078 c 59.867,0 112.02,-5.15 156.535,-15.39 44.477,-10.23 84.035,-27.24 118.629,-50.97 34.641,-23.73 60.774,-56.6 78.488,-98.56 17.672,-41.96 26.29,-92.69 25.739,-152.162 C 730.957,787.281 667.469,701.59 541.008,683.609 617.523,669.59 674.637,637.48 712.34,587.289 750.09,537.07 769.219,466.449 769.73,375.531 770.238,257.609 739.539,168.031 677.625,106.82 615.672,45.6211 525.379,14.9883 406.711,14.9883 H 35.1094 Z M 270.879,174.641 h 86.668 c 70.258,0 118.906,15.738 145.988,47.23 27.039,31.488 40.582,83.438 40.582,155.91 0,74.938 -15.234,129.289 -45.66,163.028 -30.465,33.73 -81.594,50.582 -153.426,50.582 h -74.152 v -416.75 z m 0,576.39 h 73.402 c 69.199,0 116.824,14.25 142.84,42.739 26.02,28.5 39.047,76.441 39.047,143.898 0,35 -4.289,63.342 -12.871,85.102 -8.582,21.73 -23.027,38.1 -43.336,49.08 -20.309,10.98 -42.824,18.23 -67.543,21.73 -24.719,3.5 -57.621,5.24 -98.754,5.24 h -32.785 v -347.789 0"
         style="fill:#5fb1e6;fill-opacity:1;fill-rule:nonzero;stroke:none"
         id="path34" /><path
         d="M 926.578,14.9883 V 1257.75 H 1159.2 V 14.9883 H 926.578 v 0"
         style="fill:#5fb1e6;fill-opacity:1;fill-rule:nonzero;stroke:none"
         id="path36" /><path
         d="M 1369.46,14.9883 V 1257.75 h 235.77 V 718.09 l 254.5,539.66 h 224.83 L 1837.1,701.59 2110.34,14.9883 H 1875.36 L 1652.07,599.648 1605.23,518.691 V 14.9883 h -235.77 v 0"
         style="fill:#5fb1e6;fill-opacity:1;fill-rule:nonzero;stroke:none"
         id="path38" /><path
         d="M 2234.08,14.9883 V 1257.75 h 541.8 V 1098.07 H 2469.85 V 741.309 h 242.03 V 581.66 H 2469.85 V 171.648 h 309.92 V 14.9883 h -545.69 v 0"
         style="fill:#5fb1e6;fill-opacity:1;fill-rule:nonzero;stroke:none"
         id="path40" /><path
         d="M 3296.81,14.9883 V 1257.75 h 235.77 V 171.648 H 3842.5 V 14.9883 h -545.69 v 0"
         style="fill:#5fb1e6;fill-opacity:1;fill-rule:nonzero;stroke:none"
         id="path42" /><path
         d="m 4266.53,177.668 c 16.65,-6.5 36.44,-9.758 59.35,-9.758 22.87,0 42.39,3.258 58.53,9.758 16.14,6.492 29.01,14.961 38.65,25.461 9.65,10.512 17.16,24.25 22.63,41.223 5.48,16.996 9.14,34 10.95,50.968 1.81,17 2.71,37.231 2.71,60.731 v 564.39 c 0,29.989 -1.53,54.981 -4.68,74.938 -3.11,19.991 -9.21,38.891 -18.34,56.601 -9.1,17.75 -22.75,30.97 -40.98,39.71 -18.22,8.78 -41.37,13.15 -69.47,13.15 -28.1,0 -51.4,-4.37 -69.86,-13.15 -18.5,-8.74 -32.16,-21.96 -41.02,-39.71 -8.85,-17.71 -14.83,-36.61 -17.94,-56.601 -3.11,-19.957 -4.69,-44.949 -4.69,-74.938 v -564.39 c 0,-23.5 0.91,-43.731 2.72,-60.731 1.85,-16.968 5.47,-33.972 10.94,-50.968 5.47,-16.973 12.87,-30.711 22.24,-41.223 9.37,-10.5 22.12,-18.969 38.26,-25.461 z M 4325.88,0 c -133.23,0 -228.76,34.75 -286.5,104.18 -57.78,69.468 -86.67,171.179 -86.67,305.078 v 458.711 c 0,65.972 6.49,123.199 19.52,171.651 12.99,48.45 33.97,90.45 62.86,125.91 28.85,35.5 67.5,62.11 115.91,79.82 48.42,17.76 106.71,26.61 174.88,26.61 132.69,0 228.09,-34.2 286.11,-102.69 58.02,-68.45 87.03,-168.89 87.03,-301.301 V 409.258 c 0,-64.977 -6.62,-122.047 -19.88,-171.25 -13.3,-49.238 -34.36,-91.949 -63.25,-128.199 C 4587,73.6016 4548.35,46.25 4499.97,27.75 4451.56,9.25 4393.54,0 4325.88,0 v 0"
         style="fill:#5fb1e6;fill-opacity:1;fill-rule:nonzero;stroke:none"
         id="path44" /><path
         d="m 5229.2,0 c -57.78,0 -107.89,6.48828 -150.32,19.5195 -42.39,12.9922 -77.26,31.211 -104.58,54.711 -27.31,23.4609 -49.2,53.5705 -65.57,90.2895 -16.42,36.73 -27.87,76.48 -34.36,119.191 -6.5,42.738 -9.77,92.34 -9.77,148.777 v 825.262 h 228.73 V 409.258 c 0,-28.957 0.78,-53.719 2.36,-74.188 1.57,-20.511 4.96,-42 10.15,-64.468 5.2,-22.481 12.6,-40.461 22.24,-53.961 9.64,-13.512 22.91,-24.762 39.83,-33.743 16.89,-9.007 37.32,-13.5 61.29,-13.5 23.93,0 44.36,4.493 61.28,13.5 16.89,8.981 29.92,20.231 39.01,33.743 9.13,13.5 16.41,31.48 21.88,53.961 5.43,22.468 8.82,43.847 10.12,64.078 1.3,20.23 1.97,45.101 1.97,74.578 v 848.492 h 228.72 V 432.488 c 0,-56.437 -3.23,-106.039 -9.76,-148.777 -6.5,-42.711 -17.95,-82.461 -34.33,-119.191 -16.41,-36.719 -38.14,-66.8286 -65.18,-90.2895 -27.08,-23.5 -61.83,-41.7188 -104.22,-54.711 C 5336.26,6.48828 5286.43,0 5229.2,0 v 0"
         style="fill:#5fb1e6;fill-opacity:1;fill-rule:nonzero;stroke:none"
         id="path46" /><path
         d="m 6014.59,173.891 h 67.15 c 23.42,0 43.96,2.007 61.68,6.019 17.71,3.981 32.51,8.738 44.51,14.25 11.97,5.469 21.97,14.488 30.04,26.961 8.06,12.481 14.2,23.969 18.34,34.481 4.17,10.507 7.28,26.367 9.36,47.589 2.09,21.25 3.39,39.36 3.9,54.36 0.55,14.988 0.79,37.23 0.79,66.707 V 878.48 c 0,29.481 -0.51,53.211 -1.54,71.2 -1.06,17.988 -3.54,36.09 -7.44,54.32 -3.89,18.26 -9.6,32.35 -17.16,42.35 -7.55,10 -17.55,19.13 -30.07,27.35 -12.48,8.27 -28.1,14.02 -46.84,17.24 -18.73,3.27 -41.36,4.88 -67.89,4.88 h -64.83 V 173.891 Z M 5778.86,14.9883 V 1257.75 h 301.3 c 78.1,0 143.39,-7.51 195.98,-22.51 52.55,-15 94.7,-38.73 126.46,-71.2 31.77,-32.48 54.24,-72.35 67.55,-119.54 13.26,-47.23 19.87,-105.328 19.87,-174.289 V 422.02 c 0,-70.969 -6.77,-131.192 -20.27,-180.672 C 6456.21,191.879 6433.97,149.918 6403,115.441 6372.02,80.9609 6330.77,55.6094 6279.25,39.3594 6227.73,23.1406 6164.51,14.9883 6089.57,14.9883 h -310.71 v 0"
         style="fill:#5fb1e6;fill-opacity:1;fill-rule:nonzero;stroke:none"
         id="path48" /><path
         d="m 4493.48,6093.31 h -365.19 c -78.76,1.38 -150.16,66.48 -156.85,143.86 -7.28,84.19 62.39,167.87 151.42,170.94 1.81,0.04 3.62,0.04 5.43,0.08 h 470.04 c 1.81,-0.04 3.62,-0.04 5.43,-0.08 60.3,-3.15 114.94,-43.45 138.99,-97.06 l 0.86,0.35 c 72.03,-172.4 144.02,-344.79 216.01,-517.19 l -290.56,-121.35 -175.58,420.45 v 0"
         style="fill:#edb140;fill-opacity:1;fill-rule:evenodd;stroke:none"
         id="path50" /></g></g></svg>
