<svg width="256" height="256" viewBox="0 0 256 256" fill="none" xmlns="http://www.w3.org/2000/svg">
<path d="M0.374512 0.373199V255.625H255.625V0.373199H0.374512ZM118.449 88.9615C118.449 85.1956 120.283 82.1421 122.542 82.1421C124.801 82.1421 126.632 85.194 126.632 88.9615V99.8709C126.632 103.635 124.8 106.69 122.542 106.69C120.284 106.69 118.449 103.637 118.449 99.8709V88.9615ZM107.538 97.1427C107.538 93.3783 109.37 90.3233 111.628 90.3233C113.89 90.3233 115.721 93.3768 115.721 97.1427V154.356C114.956 155.616 114.376 157.085 114.077 158.742C113.309 158.467 112.49 158.322 111.636 158.322C110.131 158.322 108.747 158.788 107.538 159.598V97.1427ZM50.2636 175.221C50.2636 178.986 48.4331 182.041 46.1738 182.041C43.9146 182.041 42.0824 178.987 42.0824 175.221V169.767C42.0824 166.001 43.9146 162.947 46.1738 162.947C48.4347 162.947 50.2636 165.999 50.2636 169.767V175.221ZM50.2636 57.9331C50.2636 61.6975 48.4331 64.7526 46.1738 64.7526C43.9146 64.7526 42.0824 61.6991 42.0824 57.9331V52.4769C42.0824 48.711 43.9146 45.6574 46.1738 45.6574C48.4347 45.6574 50.2636 48.711 50.2636 52.4769V57.9331ZM61.1745 175.221C61.1745 178.986 59.3424 182.041 57.0831 182.041C54.8239 182.041 52.9933 178.987 52.9933 175.221V124.76C52.9933 120.994 54.8254 117.94 57.0831 117.94C59.344 117.94 61.1745 120.992 61.1745 124.76V175.221ZM61.1745 102.938C61.1745 106.703 59.3424 109.758 57.0831 109.758C54.8239 109.758 52.9933 106.704 52.9933 102.938V52.4769C52.9933 48.711 54.8254 45.6574 57.0831 45.6574C59.344 45.6574 61.1745 48.711 61.1745 52.4769V102.938ZM72.0869 175.221C72.0869 178.986 70.2532 182.041 67.994 182.041C65.7347 182.041 63.9026 178.987 63.9026 175.221V124.76C63.9026 120.994 65.7347 117.94 67.994 117.94C70.2532 117.94 72.0869 120.992 72.0869 124.76V175.221ZM72.0869 102.938C72.0869 106.703 70.2532 109.758 67.994 109.758C65.7347 109.758 63.9026 106.704 63.9026 102.938V52.4769C63.9026 48.711 65.7347 45.6574 67.994 45.6574C70.2532 45.6574 72.0869 48.711 72.0869 52.4769V102.938ZM82.9962 175.221C82.9962 178.986 81.1641 182.041 78.9048 182.041C76.644 182.041 74.8134 178.987 74.8134 175.221V169.767C74.8134 166.001 76.6455 162.947 78.9048 162.947C81.1641 162.947 82.9962 165.999 82.9962 169.767V175.221ZM82.9962 57.9331C82.9962 61.6975 81.1641 64.7526 78.9048 64.7526C76.644 64.7526 74.8134 61.6991 74.8134 57.9331V52.4769C74.8134 48.711 76.6455 45.6574 78.9048 45.6574C81.1641 45.6574 82.9962 48.711 82.9962 52.4769V57.9331ZM93.907 175.221C93.907 178.986 92.0749 182.041 89.8156 182.041C87.5579 182.041 85.7258 178.987 85.7258 175.221V169.767C85.7258 166.001 87.5579 162.947 89.8156 162.947C92.0765 162.947 93.907 165.999 93.907 169.767V175.221ZM93.907 57.9331C93.907 61.6975 92.0749 64.7526 89.8156 64.7526C87.5579 64.7526 85.7258 61.6991 85.7258 57.9331V52.4769C85.7258 48.711 87.5579 45.6574 89.8156 45.6574C92.0765 45.6574 93.907 48.711 93.907 52.4769V57.9331ZM96.6289 109.417C96.6289 105.652 98.461 102.597 100.719 102.597C102.977 102.597 104.809 105.651 104.809 109.417V159.588C103.603 158.785 102.222 158.322 100.725 158.322C99.2213 158.322 97.838 158.788 96.6289 159.598V109.417V109.417ZM104.819 175.221C104.819 178.986 102.986 182.041 100.727 182.041C98.4672 182.041 96.6351 178.987 96.6351 175.221V169.767C96.6351 166.001 98.4672 162.947 100.727 162.947C102.986 162.947 104.819 165.999 104.819 169.767V175.221ZM104.819 57.9331C104.819 61.6975 102.986 64.7526 100.727 64.7526C98.4672 64.7526 96.6351 61.6991 96.6351 57.9331V52.4769C96.6351 48.711 98.4672 45.6574 100.727 45.6574C102.986 45.6574 104.819 48.711 104.819 52.4769V57.9331ZM115.723 187.156C115.723 190.92 113.89 193.976 111.63 193.976C109.37 193.976 107.54 190.922 107.54 187.156V185.39C108.749 186.2 110.134 186.666 111.637 186.666C113.136 186.666 114.515 186.206 115.723 185.404V187.156ZM115.729 175.221C115.729 178.986 113.897 182.041 111.637 182.041C109.377 182.041 107.546 178.987 107.546 175.221V169.767C107.546 166.001 109.378 162.947 111.637 162.947C113.897 162.947 115.729 165.999 115.729 169.767V175.221ZM115.729 57.9331C115.729 61.6975 113.897 64.7526 111.637 64.7526C109.377 64.7526 107.546 61.6991 107.546 57.9331V52.4769C107.546 48.711 109.378 45.6574 111.637 45.6574C113.897 45.6574 115.729 48.711 115.729 52.4769V57.9331ZM126.632 195.34C126.632 199.105 124.8 202.157 122.542 202.157C120.284 202.157 118.449 199.105 118.449 195.34V184.428C118.449 183.85 118.506 183.296 118.588 182.759C119.766 183.509 121.102 183.939 122.547 183.939C123.99 183.939 125.319 183.506 126.495 182.756C126.578 183.296 126.633 183.848 126.633 184.428V195.34H126.632ZM126.638 172.493C126.638 176.261 124.806 179.313 122.547 179.313C120.289 179.313 118.457 176.261 118.457 172.493V161.584C118.457 157.819 120.289 154.766 122.547 154.766C124.807 154.766 126.638 157.818 126.638 161.584V172.493ZM126.638 66.1159C126.638 69.8803 124.806 72.9338 122.547 72.9338C120.289 72.9338 118.457 69.8803 118.457 66.1159V55.205C118.457 51.4406 120.289 48.3855 122.547 48.3855C124.807 48.3855 126.638 51.439 126.638 55.205V66.1159ZM137.543 200.795C137.543 204.559 135.711 207.614 133.453 207.614C131.195 207.614 129.363 204.561 129.363 200.795V189.883C129.363 186.118 131.195 183.063 133.453 183.063C135.711 183.063 137.543 186.117 137.543 189.883V200.795ZM137.549 167.037C137.549 170.803 135.717 173.856 133.457 173.856C131.198 173.856 129.366 170.804 129.366 167.037V156.128C129.366 152.363 131.198 149.308 133.457 149.308C135.717 149.308 137.549 152.362 137.549 156.128V167.037ZM137.549 94.4162C137.549 98.1806 135.717 101.234 133.459 101.234C131.198 101.234 129.368 98.1821 129.368 94.4162V83.5069C129.368 79.7393 131.2 76.6874 133.459 76.6874C135.717 76.6874 137.549 79.7393 137.549 83.5069V94.4162ZM137.549 71.5705C137.549 72.1503 137.493 72.7025 137.41 73.2407C136.233 72.4896 134.896 72.0609 133.451 72.0609C132.008 72.0609 130.679 72.4942 129.503 73.2437C129.422 72.7055 129.365 72.1519 129.365 71.572V60.6612C129.365 56.8952 131.197 53.8433 133.456 53.8433C135.715 53.8433 137.547 56.8952 137.547 60.6612V71.5705H137.549ZM148.455 203.522C148.455 207.286 146.623 210.341 144.362 210.341C142.103 210.341 140.272 207.288 140.272 203.522V198.067C140.272 194.302 142.104 191.247 144.362 191.247C146.625 191.247 148.455 194.301 148.455 198.067V203.522ZM148.461 158.857C148.461 162.622 146.629 165.677 144.371 165.677C142.109 165.677 140.279 162.623 140.279 158.857V101.644C141.043 100.384 141.622 98.9147 141.921 97.2599C142.69 97.5344 143.508 97.6794 144.362 97.6794C145.867 97.6794 147.251 97.2137 148.461 96.404V158.857ZM148.461 86.2334C148.461 89.9994 146.629 93.0529 144.37 93.0529C142.111 93.0529 140.279 90.0009 140.279 86.2334V80.7788C140.279 77.0144 142.111 73.9593 144.37 73.9593C146.631 73.9593 148.461 77.0128 148.461 80.7788V86.2334ZM148.461 70.6082C147.251 69.7986 145.866 69.3328 144.362 69.3328C142.865 69.3328 141.484 69.7924 140.279 70.5959V68.8439C140.279 65.0795 142.111 62.0245 144.371 62.0245C146.629 62.0245 148.461 65.078 148.461 68.8439V70.6082ZM159.364 203.522C159.364 207.286 157.532 210.341 155.275 210.341C153.017 210.341 151.182 207.288 151.182 203.522V198.067C151.182 194.302 153.015 191.247 155.275 191.247C157.534 191.247 159.364 194.301 159.364 198.067V203.522ZM159.371 146.583C159.371 150.348 157.538 153.403 155.279 153.403C153.02 153.403 151.189 150.349 151.189 146.583V96.4102C152.395 97.2137 153.776 97.6779 155.275 97.6779C156.778 97.6779 158.161 97.2121 159.371 96.4025V146.583V146.583ZM159.372 86.2334C159.372 89.9994 157.54 93.0529 155.281 93.0529C153.021 93.0529 151.188 90.0009 151.188 86.2334V80.7788C151.188 77.0144 153.021 73.9593 155.281 73.9593C157.54 73.9593 159.372 77.0128 159.372 80.7788V86.2334ZM170.274 203.522C170.274 207.286 168.442 210.341 166.184 210.341C163.926 210.341 162.094 207.288 162.094 203.522V198.067C162.094 194.302 163.926 191.247 166.184 191.247C168.442 191.247 170.274 194.301 170.274 198.067V203.522ZM170.281 86.2334C170.281 89.9994 168.449 93.0529 166.192 93.0529C163.931 93.0529 162.1 90.0009 162.1 86.2334V80.7788C162.1 77.0144 163.932 73.9593 166.192 73.9593C168.449 73.9593 170.281 77.0128 170.281 80.7788V86.2334ZM181.186 203.522C181.186 207.286 179.354 210.341 177.093 210.341C174.834 210.341 173.003 207.288 173.003 203.522V198.067C173.003 194.302 174.835 191.247 177.093 191.247C179.355 191.247 181.186 194.301 181.186 198.067V203.522ZM181.186 86.2334C181.186 89.9994 179.354 93.0529 177.093 93.0529C174.834 93.0529 173.003 90.0009 173.003 86.2334V80.7788C173.003 77.0144 174.835 73.9593 177.093 73.9593C179.355 73.9593 181.186 77.0128 181.186 80.7788V86.2334ZM192.095 203.522C192.095 207.286 190.263 210.341 188.005 210.341C185.748 210.341 183.913 207.288 183.913 203.522V153.06C183.913 149.296 185.746 146.241 188.005 146.241C190.265 146.241 192.095 149.294 192.095 153.06V203.522ZM192.095 131.239C192.095 135.006 190.263 138.058 188.005 138.058C185.748 138.058 183.913 135.006 183.913 131.239V80.7788C183.913 77.0144 185.746 73.9593 188.005 73.9593C190.265 73.9593 192.095 77.0128 192.095 80.7788V131.239ZM203.006 203.522C203.006 207.286 201.174 210.341 198.916 210.341C196.659 210.341 194.827 207.288 194.827 203.522V153.06C194.827 149.296 196.659 146.241 198.916 146.241C201.174 146.241 203.006 149.294 203.006 153.06V203.522ZM203.006 131.239C203.006 135.006 201.174 138.058 198.916 138.058C196.659 138.058 194.827 135.006 194.827 131.239V80.7788C194.827 77.0144 196.659 73.9593 198.916 73.9593C201.174 73.9593 203.006 77.0128 203.006 80.7788V131.239ZM213.919 203.522C213.919 207.286 212.085 210.341 209.826 210.341C207.566 210.341 205.736 207.288 205.736 203.522V198.067C205.736 194.302 207.568 191.247 209.826 191.247C212.083 191.247 213.919 194.301 213.919 198.067V203.522ZM213.919 86.2334C213.919 89.9994 212.085 93.0529 209.826 93.0529C207.566 93.0529 205.736 90.0009 205.736 86.2334V80.7788C205.736 77.0144 207.568 73.9593 209.826 73.9593C212.083 73.9593 213.919 77.0128 213.919 80.7788V86.2334Z" fill="black"/>
</svg>
