<svg xmlns="http://www.w3.org/2000/svg" xml:space="preserve" width="971.8" height="854.4"><path d="M2428 2673a1255.8 1255.8 0 0 0-104-163.6c-238.8-318.2-630.2-518-1032.1-518-523 0-1030.3 346.7-1215.3 856-146.3 402.9-81 877.4 178.4 1227.2 238.2 321.3 626.9 522.4 1032.7 524.3h8.4c201-1 400.3-52.4 579.4-144.7l-421.1-183.9a984.1 984.1 0 0 1-165.7 13.7 985.6 985.6 0 0 1-667.2-268.6c-244.3-232.2-357-593-287.3-925.9 78.6-374.9 391.9-693.2 775.6-766.2 298.8-56.8 621.7 36.1 846 245.5a948.3 948.3 0 0 1 95.9 104.1H2428M6538.3 3255l305-110.6c-35.7-297.6-170.3-585-394.2-797.8-295.4-280.8-725.4-409.3-1128.2-332.6-372.9 71-705.4 319-892.3 656.2l377.6 1.8c144-176.4 346.6-305.5 573.5-348.7 405.5-77.1 849 130.4 1048.1 510.9a993.2 993.2 0 0 1 110.5 420.8M2317.9 4906l-291.7-41.8c-101.3-12-198.1 86.1-176.3 188.6 13.3 62.4 67.8 112.4 131.7 123.1l891.7 127.7c5.2.6 10.5 1.8 29.5 1.4 93.5-6.4 169.7-103.5 145.1-197.2-15.6-59.5-69.3-105.8-130-116l-283.8-40.6 53.8-149.6-290.3-115.2-79.7 219.6" style="fill:#edb140;fill-opacity:1;fill-rule:evenodd;stroke:none" transform="matrix(.13333 0 0 -.13333 0 854.4)"/><path d="M6501 5660c78.8-5.9 138-93.7 109.7-168.7a124.9 124.9 0 0 0-35.3-50.4l-467-402c-49.6-41-129.4-37-172.7 9.6-44.2 47.5-43.3 130.1 6.4 176.3l3.5 3.2 467 402c21 17.4 47 28.4 74 30 9.3.5 11.4.1 14.4 0M6367 3903.4c12.6-.8 24.9-3.2 36.8-7.2l580-208c59.5-22.8 95-92.2 77.8-152-18.2-63.3-91.2-105-157-84.6l-5 1.7-580 208.1c-61.4 23.5-96.5 96.3-76.2 157 17 50.9 69.5 86.2 123.7 85M7175.3 4848.9c81.7-8.9 139.2-105.2 101-180.7a129.5 129.5 0 0 0-77-63.6l-834.6-238.5c-67.8-17.5-143 28.1-156.5 95-12.4 60.8 26 125.5 87.9 144.9l834.7 238.5c14.5 3.8 29.3 5.3 44.5 4.4M1721 3796l120-605.4h3764.7l-465.8 2093L1721 3796ZM3061 2307c5.5-19 27-31.3 46.2-26.5 84.6 21.7 168 47.2 252.1 70.8a39.7 39.7 0 0 1 26.9 47L3252 2875.9h-350.8c53.2-189.6 105.8-379.3 159.7-568.7zm-487 568.7h-862.4c-24 2.7-48.2 5.6-69.7 16.2-32.5 16.1-59 43.7-73.7 76.4-5 10.9-7.3 22.8-11 34.2l-169.7 856.6c-2 23.6-3.8 47.7 2.1 70.5 9.1 34.7 30.4 65.7 58.8 86.7 9.5 7 20.5 11.8 30.7 17.7l3710.2 1614.5c33 10.2 33.2 10.2 67.6 13l34.3-4.9c21.6-8.1 43.6-16.5 61.3-31.2 26.6-22 42-53.8 53.3-87l550-2471c3.2-30.9 6.8-39.2-.4-70a159.7 159.7 0 0 0-85.2-106.2c-28.5-13.7-37.4-12-68.2-15.5H3579.3c37-131.3 74-262.6 110.5-394.1 47.4-175.2-54-377.7-243-432.8-85-24.2-170.3-48.1-255.6-71.8-175.1-47.4-379.2 59-432.8 243a111692 111692 0 0 0-184.3 655.7" style="fill:#5fb1e6;fill-opacity:1;fill-rule:evenodd;stroke:none" transform="matrix(.13333 0 0 -.13333 0 854.4)"/><path d="M7190.4 1244.3H6797v-86.5h141v-91c0-24.6 3.6-45.5 10.8-62.8a117.4 117.4 0 0 1 28.4-42.1 107.9 107.9 0 0 1 40.5-23.7 149.4 149.4 0 0 1 93.4 0 109 109 0 0 1 68.6 65.8 163.6 163.6 0 0 1 10.7 62.9v177.4zm-185.1-86.5h118v-67.2c0-10-.8-19.5-2.3-28.7a67.1 67.1 0 0 0-8.5-24.3 46.5 46.5 0 0 0-18-16.8 62.7 62.7 0 0 0-30.2-6.3c-12.6 0-22.6 2-30.4 6.3a46.2 46.2 0 0 0-17.9 16.8c-4.2 7-7 15-8.5 24.3-1.5 9.2-2.2 18.7-2.2 28.6v67.3M7190.4 809H6797V639.3c0-30.1 5-56.3 15.1-78.5 10.1-22.3 24-40.8 41.6-55.7 17.7-14.9 38.6-26 62.9-33.3 24.2-7.4 50.7-11 79.3-11a245 245 0 0 1 85.4 13.4c24.3 9 44.5 21.5 60.6 37.5 16.2 16 28.3 35 36.4 56.8 8 21.8 12.1 45.4 12.1 70.8V809zm-320.7-86.5h248v-61.7c0-21.3-3-39.2-9-53.7a84.3 84.3 0 0 0-26.3-35c-11.4-8.9-25-15.2-41-19-16-4-34-5.8-53.8-5.8a161 161 0 0 0-55 8.2 101 101 0 0 0-36.7 22 79.6 79.6 0 0 0-20.1 31.5 111 111 0 0 0-6 36.4v77M7003 236.5l-206 137.2v-97l136.1-87.6-136.1-86V.2l205.5 137.2 188-126.2V106l-125.7 80 125.6 77v100.4l-187.3-126.8M35.1 15v1242.8h317c59.8 0 112-5.2 156.5-15.4 44.5-10.3 84-27.3 118.6-51a219.6 219.6 0 0 0 78.5-98.6c17.7-42 26.3-92.7 25.8-152.1-.5-153.4-64-239.1-190.5-257 76.5-14.1 133.6-46.2 171.3-96.4 37.8-50.2 57-120.9 57.4-211.8.5-117.9-30.2-207.5-92-268.7-62-61.2-152.3-91.8-271-91.8H35.1ZM271 174.6h86.6c70.3 0 119 15.8 146 47.3 27 31.5 40.6 83.4 40.6 155.9 0 75-15.2 129.3-45.6 163-30.5 33.7-81.6 50.6-153.5 50.6H271V174.6zm0 576.4h73.4c69.2 0 116.8 14.3 142.8 42.8 26 28.5 39 76.4 39 143.9 0 35-4.2 63.3-12.8 85a92.8 92.8 0 0 1-43.3 49.1 199.6 199.6 0 0 1-67.6 21.8 736.4 736.4 0 0 1-98.7 5.2h-32.8V751M926.6 15v1242.8h232.6V15H926.6M1369.5 15v1242.8h235.7V718l254.5 539.6h224.9L1837 701.6 2110.3 15h-235l-223.2 584.6-46.9-81V15h-235.7M2234 15v1242.8H2776V1098h-306V741.3h242V581.7h-242v-410h309.9V15H2234M3296.8 15v1242.8h235.8V171.5h309.9V15h-545.7M4266.5 177.7a163 163 0 0 1 59.4-9.8c22.9 0 42.4 3.3 58.5 9.8 16.2 6.5 29 15 38.7 25.4a109.7 109.7 0 0 1 22.6 41.3c5.5 17 9.1 34 11 51 1.7 17 2.6 37.2 2.6 60.7v564.3c0 30-1.5 55-4.6 75-3.1 20-9.2 38.9-18.4 56.6a87 87 0 0 1-41 39.7c-18.2 8.8-41.3 13.1-69.4 13.1-28.1 0-51.4-4.3-69.9-13.1a85 85 0 0 1-41-39.7 191.9 191.9 0 0 1-18-56.6c-3-20-4.6-45-4.6-75V356.1c0-23.5.9-43.8 2.7-60.8 1.8-17 5.5-34 11-51 5.4-17 12.8-30.7 22.2-41.2 9.3-10.5 22-19 38.2-25.4zM4326 0c-133.2 0-228.8 34.8-286.5 104.2-57.8 69.4-86.7 171.2-86.7 305V868c0 66 6.5 123.2 19.5 171.6 13 48.5 34 90.5 62.9 126 28.8 35.4 67.5 62 115.9 79.8 48.4 17.7 106.7 26.6 174.9 26.6 132.7 0 228-34.2 286-102.7 58.1-68.5 87.1-169 87.1-301.3V409.3c0-65-6.6-122-19.9-171.3a348.8 348.8 0 0 0-63.2-128.2 266 266 0 0 0-116-82C4451.7 9.1 4393.6 0 4326 0M5229.2 0c-57.8 0-107.9 6.5-150.3 19.5-42.4 13-77.3 31.2-104.6 54.7a252.3 252.3 0 0 0-65.6 90.3 460 460 0 0 0-34.3 119.2c-6.5 42.7-9.8 92.4-9.8 148.8v825.3h228.7V409.3c0-29 .8-53.8 2.4-74.2 1.6-20.5 5-42 10.1-64.5a151.2 151.2 0 0 1 22.3-54c9.6-13.5 22.9-24.7 39.8-33.7 16.9-9 37.3-13.5 61.3-13.5s44.4 4.5 61.3 13.5 29.9 20.2 39 33.7a167 167 0 0 1 21.9 54c5.4 22.5 8.8 43.8 10 64 1.4 20.3 2 45.2 2 74.7v848.5h228.8V432.5c0-56.4-3.3-106-9.8-148.8-6.5-42.7-18-82.4-34.3-119.2a255.2 255.2 0 0 0-65.2-90.3c-27-23.5-61.8-41.7-104.2-54.7-42.4-13-92.3-19.5-149.5-19.5M6014.6 173.9h67.1c23.5 0 44 2 61.7 6 17.7 4 32.5 8.7 44.5 14.3 12 5.4 22 14.4 30 27a200 200 0 0 1 18.4 34.4c4.2 10.5 7.3 26.4 9.4 47.6 2 21.2 3.4 39.4 3.9 54.4s.8 37.2.8 66.7v454.2c0 29.5-.5 53.2-1.6 71.2-1 18-3.5 36-7.4 54.3a107.1 107.1 0 0 1-17.2 42.4 118.8 118.8 0 0 1-76.9 44.5 402.1 402.1 0 0 1-67.9 5h-64.8v-922Zm-235.7-159v1242.9h301.3c78 0 143.4-7.6 196-22.6 52.5-15 94.6-38.7 126.4-71.2a273.9 273.9 0 0 0 67.5-119.5c13.3-47.2 20-105.3 20-174.3V422c0-71-6.9-131.2-20.4-180.7a305.9 305.9 0 0 0-66.7-125.9c-31-34.4-72.2-59.8-123.8-76C6227.8 23 6164.6 15 6089.6 15h-310.7" style="fill:#5fb1e6;fill-opacity:1;fill-rule:nonzero;stroke:none" transform="matrix(.13333 0 0 -.13333 0 854.4)"/><path d="M4493.5 6093.3h-365.2c-78.8 1.4-150.2 66.5-156.9 143.9-7.2 84.2 62.4 167.8 151.5 171h480.9c60.3-3.2 114.9-43.5 139-97.2l.8.4 216-517.2-290.5-121.3-175.6 420.4" style="fill:#edb140;fill-opacity:1;fill-rule:evenodd;stroke:none" transform="matrix(.13333 0 0 -.13333 0 854.4)"/></svg>