<svg xmlns="http://www.w3.org/2000/svg" xmlns:xlink="http://www.w3.org/1999/xlink" width="300" height="300" viewBox="0 0 300 300">
  <defs>
    <polygon id="a" points=".192 .177 90.407 .177 90.407 70.103 .192 70.103"/>
  </defs>
  <g fill="none" fill-rule="evenodd" transform="translate(9.375 115.125)">
    <path fill="#1A1919" d="M14.589 5.654625C14.106375 4.803375 13.226625 4.71825 12.375 4.71825L7.152375 4.71825 7.152375 8.63475 11.83575 8.63475C12.658875 8.63475 13.056 8.63475 13.4535 8.5215 14.333625 8.294625 14.844375 7.61325 14.844375 6.6765 14.844375 6.165375 14.67375 5.82525 14.589 5.654625zM19.47075 11.814C17.541 13.119375 14.758875 13.14825 12.57375 13.14825L7.152375 13.14825 7.152375 20.215125 0 20.215125 0 .177 13.737375.177C14.418375.177 15.127875.177 15.80925.233625 18.165.37575 20.18025.9435 21.31575 3.21375 21.62775 3.867 22.02525 4.888125 22.02525 6.56325 22.02525 7.528125 21.911625 10.19625 19.47075 11.814L19.47075 11.814zM37.297125 10.56525C36.190125 8.663625 33.834375 8.69175 33.295125 8.719875 32.727375 8.74875 32.24475 8.80575 31.7055 9.004125 30.172875 9.5715 29.37825 10.990875 29.37825 12.60825 29.37825 12.977625 29.434875 14.3115 30.2865 15.24825 31.393125 16.497 33.35175 16.554 33.72075 16.554 35.253375 16.554 36.8145 15.816 37.467375 14.396625 37.6095 14.056125 37.779375 13.488375 37.779375 12.60825 37.779375 12.268125 37.779375 11.388 37.297125 10.56525zM40.135125 19.392C38.9715 19.903125 36.729375 20.612625 33.578625 20.612625 29.69025 20.612625 27.19275 19.618875 25.830375 18.768 25.518 18.56925 24.66675 18.029625 23.985375 17.17875 23.3895 16.468875 22.45275 15.021375 22.45275 12.694125 22.45275 9.202875 24.553125 7.443 25.631625 6.7335 26.908875 5.88225 29.40675 4.8315 33.096375 4.774875 33.777375 4.774875 35.622375 4.774875 37.6095 5.172375 38.48925 5.34225 41.1855 5.910375 43.058625 8.095875 43.683 8.80575 44.704875 10.281 44.704875 12.66525 44.704875 17.008125 41.412375 18.796125 40.135125 19.392L40.135125 19.392zM56.768625 10.707C56.428125 10.707 56.08725 10.735125 55.774875 10.763625 55.434375 10.79175 53.95875 10.90575 53.391 12.097875 53.16375 12.552 53.135625 13.006125 53.135625 13.488375L53.135625 20.215125 46.4655 20.215125 46.4655 5.172375 53.16375 5.172375 53.16375 7.55625C54.27075 5.82525 56.11575 5.229 56.768625 5.05875 57.137625 4.973625 57.56325 4.917 58.357875 4.888125L58.357875 10.820625C57.818625 10.763625 57.307875 10.707 56.768625 10.707"/>
    <g fill="#1A1919" transform="translate(59.625)">
      <path d="M7.126875,20.215125 C6.417375,20.215125 5.707875,20.187 4.998375,20.101875 C4.799625,20.073 3.579375,19.903125 2.8695,19.051875 C2.415375,18.511875 2.273625,17.887875 2.302125,16.72425 L2.443875,10.038375 L0.315,10.038375 L0.315,5.497875 L2.472375,5.497875 L2.5575,0.715875 L9.000375,0.715875 L9.000375,5.497875 L11.46975,5.497875 L11.46975,10.038375 L9.028875,10.038375 L9.028875,14.652375 C9.028875,14.82225 9.057,15.0495 9.114,15.21975 C9.28425,15.759 9.709875,15.95775 10.67475,15.95775 L11.46975,15.95775 L11.46975,20.215125 L7.126875,20.215125"/>
      <polygon points="13.405 20.215 20.132 20.215 20.132 .177 13.405 .177"/>
    </g>
    <path fill="#1A1919" d="M91.082625,13.5735 C89.74875,13.687125 89.01075,13.82925 88.585125,14.34 C88.4715,14.453625 88.273125,14.7375 88.273125,15.1635 C88.273125,15.503625 88.414875,15.7305 88.4715,15.816 C88.783875,16.298625 89.40825,16.66725 90.600375,16.66725 C91.139625,16.66725 92.416875,16.554 93.722625,15.8445 C93.864375,15.759 94.432125,15.446625 94.82925,14.9925 C95.283375,14.48175 95.397,13.9995 95.539125,13.3185 C94.063125,13.40325 92.558625,13.431375 91.082625,13.5735 Z M95.822625,20.215125 C95.652375,19.534125 95.62425,19.4775 95.56725,18.768 C94.54575,19.222125 91.59375,20.641125 88.102875,20.641125 C83.22075,20.641125 81.489375,18.14325 81.489375,15.816 C81.489375,15.446625 81.546,14.254875 82.2555,13.290375 C83.107125,12.097875 84.69675,11.58675 85.03725,11.502 C87.62025,10.735125 92.814375,10.678875 95.454,10.621875 C95.454,10.13925 95.425125,9.79875 95.141625,9.40125 C94.48875,8.5785 93.126375,8.493 92.218125,8.493 C91.28175,8.493 89.55,8.606625 88.8405,9.344625 C88.67025,9.514875 88.64175,9.6285 88.556625,9.855375 L82.11375,9.855375 C82.2555,9.032625 82.596375,6.96075 84.753375,5.853375 C86.08725,5.172375 88.4715,4.661625 91.99125,4.661625 C92.5305,4.661625 95.25525,4.661625 97.440375,5.08725 C97.837875,5.172375 99.62625,5.42775 100.732875,6.56325 C102.067125,7.897125 101.9535,9.6 101.9535,10.16775 L101.9535,18.029625 C101.9535,19.363875 102.237,19.704375 102.776625,20.215125 L95.822625,20.215125 L95.822625,20.215125 Z"/>
    <g transform="translate(104.25)">
      <mask id="b" fill="white">
        <use xlink:href="#a"/>
      </mask>
      <path fill="#1A1919" d="M13.81575 20.215125L13.81575 12.778875C13.81575 12.60825 13.81575 11.89875 13.588875 11.27475 12.936 9.316125 11.034375 9.174375 10.41 9.174375 8.08275 9.174375 7.31625 10.79175 7.089 11.671875 6.94725 12.154125 6.94725 12.438375 6.94725 12.949125L6.94725 20.215125.192 20.215125.192 5.172375 6.94725 5.172375 6.94725 7.073625C7.34475 6.7905 7.74225 6.506625 8.139375 6.279375 10.466625 4.917 12.39675 4.888125 13.47525 4.888125 15.15 4.888125 16.5975 5.05875 18.045 5.910375 18.21525 6.024 18.7545 6.336375 19.180125 6.7905 19.71975 7.3575 20.03175 8.038875 20.116875 8.26575 20.485875 9.231 20.5425 10.252875 20.5425 12.32475L20.5425 20.215125 13.81575 20.215125M35.70525 11.076C35.36475 10.337625 34.5135 9.231 32.554875 9.231 30.483 9.231 29.0355 10.451625 29.0355 12.60825 29.0355 12.8925 29.0355 13.46025 29.319375 14.14125 29.858625 15.446625 31.10775 16.128 32.49825 16.128 34.570125 16.128 35.9895 14.652375 35.9895 12.60825 35.9895 12.38175 35.9895 11.7 35.70525 11.076zM35.9895 20.215125L35.9895 18.7395C35.45025 19.136625 35.2515 19.27875 34.910625 19.449 34.229625 19.818 32.49825 20.556 30.31275 20.556 27.588 20.556 25.8 19.449 24.976875 18.796125 24.550875 18.427125 23.869875 17.80275 23.274 16.610625 22.64925 15.4185 22.33725 14.084625 22.33725 12.750375 22.33725 12.040875 22.450875 10.025625 23.6145 8.181 24.437625 6.87525 26.452875 4.661625 30.426375 4.690125 33.491625 4.690125 34.967625 5.88225 35.9895 6.6765L35.9895.177 42.68775.177 42.68775 20.215125 35.9895 20.215125 35.9895 20.215125zM73.3875 51.337875C73.3875 52.8435 72.340125 54.3495 70.638 54.3495 68.93625 54.3495 67.9545 52.8435 67.9545 51.337875L67.9545 23.648625 47.48025 23.648625C47.48025 23.648625 50.93475 30.892875 50.93475 41.121 50.93475 47.9655 50.93475 51.53475 50.93475 51.53475 50.93475 62.139 58.39725 70.125 70.638 70.125 82.8795 70.125 90.40725 62.139 90.40725 51.53475L90.40725 23.648625 73.3875 23.648625 73.3875 51.337875" mask="url(#b)"/>
    </g>
    <path fill="#1A1919" d="M216.646875,45.904875 C215.625375,45.904875 214.942875,45.862125 214.94475,45.85575 L214.94475,37.95675 C214.9455,37.95675 215.07375,37.918875 216.123375,37.918875 C218.086875,37.918875 219.789,39.817125 219.789,41.911875 C219.789,43.87575 218.349,45.904875 216.646875,45.904875 Z M236.154375,42.828375 C236.154375,27.248625 224.96025,23.648625 211.86825,23.648625 L197.925375,23.648625 L197.925375,69.470625 L214.94475,69.470625 L214.94475,59.52075 L220.189875,69.470625 L239.606625,69.470625 L230.06625,56.24775 C234.844875,52.189125 236.154375,46.886625 236.154375,42.828375 L236.154375,42.828375 Z"/>
    <polyline fill="#1A1919" points="262.788 23.649 256.438 36.464 250.154 23.649 231.432 23.649 247.928 53.826 247.928 69.471 264.948 69.471 264.948 53.956 281.51 23.649 262.788 23.649"/>
    <polyline fill="#1A1919" points="51.531 69.471 80.726 69.471 80.726 54.087 68.55 54.087 68.55 50.788 77.792 50.788 77.792 42.331 68.55 42.331 68.55 39.032 80.726 39.032 80.726 23.649 51.531 23.649 51.531 69.471"/>
    <polyline fill="#1A1919" points="24.122 37.387 17.076 23.675 0 23.675 0 69.471 17.02 69.471 17.02 48.941 24.089 60.87 31.224 48.941 31.224 69.471 48.244 69.471 48.244 23.675 31.168 23.675 24.122 37.387"/>
    <path fill="#1A1919" d="M102.734625,45.904875 C101.71275,45.904875 101.030625,45.862125 101.0325,45.85575 L101.0325,37.95675 C101.03325,37.95675 101.1615,37.918875 102.211125,37.918875 C104.174625,37.918875 105.87675,39.817125 105.87675,41.911875 C105.87675,43.87575 104.43675,45.904875 102.734625,45.904875 Z M152.24475,54.153 L143.89575,54.153 C139.771875,54.153 136.368,50.6835 136.368,46.55925 C136.368,42.435375 139.771875,38.96625 143.89575,38.96625 L151.898625,38.96625 C151.656375,30.772875 148.221,24.333 147.854625,23.519625 C146.02725,23.444625 144.21675,23.406375 143.37225,23.406375 C133.589625,23.406375 125.244,29.3115 121.782,37.79025 C119.560125,26.452125 109.498125,23.648625 97.956,23.648625 L84.013125,23.648625 L84.013125,69.470625 L101.0325,69.470625 L101.0325,59.52075 L106.278,69.470625 L125.69475,69.470625 L116.154,56.24775 C118.131375,54.5685 119.507625,52.6755 120.449625,50.746125 C122.41875,61.59975 131.90925,69.685875 143.37225,69.685875 C144.184125,69.685875 150.776625,69.651 161.36025,69.58125 C156.22725,66.11625 152.663625,61.327875 152.24475,54.153 L152.24475,54.153 Z"/>
  </g>
</svg>
