<svg width="256" height="256" fill="none" xmlns="http://www.w3.org/2000/svg"><path d="M.4.4v255.2h255.2V.4H.4Zm118 88.6c0-3.8 1.9-6.9 4.1-6.9 2.3 0 4.1 3 4.1 6.9v10.9c0 3.7-1.8 6.8-4 6.8-2.3 0-4.2-3-4.2-6.8v-11ZM107.5 97c0-3.7 1.9-6.8 4.1-6.8 2.3 0 4.1 3 4.1 6.8v57.3c-.7 1.2-1.3 2.7-1.6 4.3a7.2 7.2 0 0 0-6.6.9V97.1Zm-57.2 78.1c0 3.8-1.9 6.8-4.1 6.8-2.3 0-4.1-3-4.1-6.8v-5.4c0-3.8 1.8-6.9 4-6.9 2.3 0 4.2 3.1 4.2 6.9v5.4Zm0-117.3c0 3.8-1.9 6.9-4.1 6.9-2.3 0-4.1-3.1-4.1-6.9v-5.4c0-3.8 1.8-6.8 4-6.8 2.3 0 4.2 3 4.2 6.8v5.4Zm10.9 117.3c0 3.8-1.9 6.8-4.1 6.8-2.3 0-4.1-3-4.1-6.8v-50.4c0-3.8 1.8-6.9 4-6.9 2.3 0 4.2 3 4.2 6.9v50.4Zm0-72.3c0 3.8-1.9 6.9-4.1 6.9-2.3 0-4.1-3.1-4.1-6.9V52.5c0-3.8 1.8-6.8 4-6.8 2.3 0 4.2 3 4.2 6.8v50.4ZM72 175.2c0 3.8-1.8 6.8-4.1 6.8s-4.1-3-4.1-6.8v-50.4c0-3.8 1.8-6.9 4-6.9 2.4 0 4.2 3 4.2 6.9v50.4Zm0-72.3c0 3.8-1.8 6.9-4.1 6.9s-4.1-3.1-4.1-6.9V52.5c0-3.8 1.8-6.8 4-6.8 2.4 0 4.2 3 4.2 6.8v50.4ZM83 175.2c0 3.8-1.8 6.8-4.1 6.8s-4-3-4-6.8v-5.4c0-3.8 1.7-6.9 4-6.9s4.1 3.1 4.1 6.9v5.4ZM83 58c0 3.8-1.8 6.9-4.1 6.9s-4-3.1-4-6.9v-5.4c0-3.8 1.7-6.8 4-6.8s4.1 3 4.1 6.8v5.4Zm11 117.3c0 3.8-2 6.8-4.2 6.8s-4-3-4-6.8v-5.4c0-3.8 1.8-6.9 4-6.9 2.3 0 4.1 3.1 4.1 6.9v5.4ZM94 58c0 3.8-2 6.9-4.2 6.9s-4-3.1-4-6.9v-5.4c0-3.8 1.8-6.8 4-6.8 2.3 0 4.1 3 4.1 6.8v5.4Zm2.6 51.5c0-3.7 1.9-6.8 4.1-6.8 2.3 0 4.1 3 4.1 6.8v50.2a7.3 7.3 0 0 0-8.2 0v-50.2Zm8.2 65.8c0 3.8-1.8 6.8-4 6.8-2.3 0-4.2-3-4.2-6.8v-5.4c0-3.8 1.9-6.9 4.1-6.9 2.3 0 4.1 3.1 4.1 6.9v5.4Zm0-117.3c0 3.8-1.8 6.9-4 6.9-2.3 0-4.2-3.1-4.2-6.9v-5.4c0-3.8 1.9-6.8 4.1-6.8 2.3 0 4.1 3 4.1 6.8v5.4Zm11 129.3c0 3.7-2 6.8-4.2 6.8s-4-3-4-6.8v-1.8a7.3 7.3 0 0 0 8.1 0v1.8Zm0-12c0 3.8-1.9 6.8-4.2 6.8-2.2 0-4-3-4-6.8v-5.4c0-3.8 1.8-6.9 4-6.9 2.3 0 4.1 3.1 4.1 6.9v5.4Zm0-117.3c0 3.8-1.9 6.9-4.2 6.9-2.2 0-4-3.1-4-6.9v-5.4c0-3.8 1.8-6.8 4-6.8 2.3 0 4.1 3 4.1 6.8v5.4Zm10.8 137.4c0 3.8-1.8 6.9-4 6.9-2.3 0-4.2-3-4.2-6.9v-10.9l.2-1.6a7.3 7.3 0 0 0 7.9 0l.1 1.6v11Zm0-22.8c0 3.8-1.8 6.8-4 6.8-2.3 0-4.1-3-4.1-6.8v-11c0-3.7 1.8-6.7 4-6.7 2.3 0 4.1 3 4.1 6.8v10.9Zm0-106.4c0 3.8-1.8 6.8-4 6.8-2.3 0-4.1-3-4.1-6.8V55.2c0-3.8 1.8-6.8 4-6.8 2.3 0 4.1 3 4.1 6.8v11Zm11 134.7c0 3.8-1.9 6.8-4.1 6.8-2.3 0-4.1-3-4.1-6.8v-11c0-3.7 1.8-6.7 4-6.7 2.3 0 4.1 3 4.1 6.8v10.9Zm0-33.8c0 3.8-1.9 6.9-4.1 6.9-2.3 0-4.1-3.1-4.1-6.9v-10.9c0-3.7 1.8-6.8 4-6.8 2.3 0 4.1 3 4.1 6.8v11Zm0-72.6c0 3.8-1.9 6.8-4.1 6.8-2.3 0-4.1-3-4.1-6.8V83.5c0-3.8 1.8-6.8 4-6.8 2.3 0 4.1 3 4.1 6.8v11Zm0-22.8-.2 1.6a7.3 7.3 0 0 0-7.9 0l-.1-1.6v-11c0-3.7 1.8-6.8 4-6.8 2.3 0 4.1 3.1 4.1 6.9v10.9Zm10.9 132c0 3.7-1.9 6.7-4.1 6.7-2.3 0-4.1-3-4.1-6.8v-5.4c0-3.8 1.8-6.9 4-6.9 2.3 0 4.2 3.1 4.2 6.9v5.4Zm0-44.7c0 3.7-1.9 6.8-4.1 6.8-2.3 0-4.1-3-4.1-6.8v-57.3c.7-1.2 1.3-2.7 1.6-4.3a7.2 7.2 0 0 0 6.6-.9v62.5Zm0-72.7c0 3.8-1.9 6.9-4.1 6.9-2.3 0-4.1-3.1-4.1-6.9v-5.4c0-3.8 1.8-6.8 4-6.8 2.3 0 4.2 3 4.2 6.8v5.4Zm0-15.6a7.3 7.3 0 0 0-8.2 0v-1.8c0-3.7 1.8-6.8 4-6.8 2.3 0 4.2 3 4.2 6.8v1.8Zm10.9 133c0 3.7-1.9 6.7-4.1 6.7-2.3 0-4.1-3-4.1-6.8v-5.4c0-3.8 1.8-6.9 4-6.9 2.3 0 4.2 3.1 4.2 6.9v5.4Zm0-57c0 3.7-1.9 6.8-4.1 6.8-2.3 0-4.1-3-4.1-6.8V96.4a7.3 7.3 0 0 0 8.2 0v50.2Zm0-60.4c0 3.8-1.9 6.9-4.1 6.9-2.3 0-4.1-3.1-4.1-6.9v-5.4c0-3.8 1.8-6.8 4-6.8 2.3 0 4.2 3 4.2 6.8v5.4Zm10.9 117.3c0 3.8-1.9 6.8-4.1 6.8-2.3 0-4.1-3-4.1-6.8v-5.4c0-3.8 1.8-6.9 4-6.9 2.3 0 4.2 3.1 4.2 6.9v5.4Zm0-117.3c0 3.8-1.9 6.9-4.1 6.9-2.3 0-4.1-3.1-4.1-6.9v-5.4c0-3.8 1.8-6.8 4-6.8 2.3 0 4.2 3 4.2 6.8v5.4Zm10.9 117.3c0 3.8-1.8 6.8-4.1 6.8s-4.1-3-4.1-6.8v-5.4c0-3.8 1.8-6.9 4-6.9 2.4 0 4.2 3.1 4.2 6.9v5.4Zm0-117.3c0 3.8-1.8 6.9-4.1 6.9S173 90 173 86.2v-5.4c0-3.8 1.8-6.8 4-6.8 2.4 0 4.2 3 4.2 6.8v5.4ZM192 203.5c0 3.8-1.8 6.8-4 6.8-2.4 0-4.2-3-4.2-6.8v-50.4c0-3.8 1.8-6.9 4.1-6.9s4 3 4 6.9v50.4Zm0-72.3c0 3.8-1.8 6.9-4 6.9-2.4 0-4.2-3-4.2-6.9V80.8c0-3.8 1.8-6.8 4.1-6.8s4 3 4 6.8v50.4Zm11 72.3c0 3.8-2 6.8-4.2 6.8s-4-3-4-6.8v-50.4c0-3.8 1.8-6.9 4-6.9 2.3 0 4.1 3 4.1 6.9v50.4Zm0-72.3c0 3.8-2 6.9-4.2 6.9s-4-3-4-6.9V80.8c0-3.8 1.8-6.8 4-6.8 2.3 0 4.1 3 4.1 6.8v50.4Zm10.8 72.3c0 3.8-1.8 6.8-4 6.8-2.3 0-4.2-3-4.2-6.8v-5.4c0-3.8 1.9-6.9 4.1-6.9 2.3 0 4.1 3.1 4.1 6.9v5.4Zm0-117.3c0 3.8-1.8 6.9-4 6.9-2.3 0-4.2-3.1-4.2-6.9v-5.4c0-3.8 1.9-6.8 4.1-6.8 2.3 0 4.1 3 4.1 6.8v5.4Z" fill="#000"/></svg>