<svg xmlns="http://www.w3.org/2000/svg" xmlns:xlink="http://www.w3.org/1999/xlink" width="300" height="300"><defs><path id="a" d="M.2.2h90.2v69.9H.2z"/></defs><g fill="none" fill-rule="evenodd"><path fill="#1A1919" d="M24 120.8c-.5-.9-1.4-1-2.3-1h-5.2v4h4.7c.8 0 1.2 0 1.6-.2 1-.2 1.4-.9 1.4-1.8l-.2-1zm4.8 6.1c-1.9 1.3-4.7 1.4-6.9 1.4h-5.4v7H9.4v-20H25c2.4.2 4.5.8 5.6 3 .3.7.7 1.7.7 3.4 0 1-.1 3.6-2.6 5.2zm17.9-1.2c-1.1-2-3.5-1.9-4-1.9-.6 0-1 .1-1.6.3-1.6.6-2.3 2-2.3 3.6 0 .4 0 1.7.9 2.7 1 1.2 3 1.3 3.4 1.3 1.5 0 3-.8 3.7-2.2.2-.3.4-.9.4-1.8 0-.3 0-1.2-.5-2zm2.8 8.8c-1.2.5-3.4 1.2-6.5 1.2-4 0-6.4-1-7.8-1.8-.3-.2-1.2-.7-1.8-1.6a6.8 6.8 0 0 1-1.6-4.5c0-3.5 2.1-5.2 3.2-6a14 14 0 0 1 7.5-1.9c.7 0 2.5 0 4.5.4.9.2 3.6.7 5.4 3 .7.6 1.7 2.1 1.7 4.5 0 4.3-3.3 6.1-4.6 6.7zm16.6-8.7h-1c-.3.1-1.8.2-2.3 1.4a3 3 0 0 0-.3 1.4v6.7h-6.7v-15h6.7v2.4a6.2 6.2 0 0 1 5.2-2.7v6l-1.6-.2"/><g fill="#1A1919"><path d="M76.1 135.3H74c-.2-.1-1.4-.3-2.1-1.1-.5-.6-.6-1.2-.6-2.4l.1-6.6h-2v-4.6h2l.2-4.8H78v4.8h2.5v4.6H78v4.6l.1.5c.2.6.6.8 1.6.8h.8v4.2H76M82.4 135.3h6.7v-20h-6.7z"/></g><path fill="#1A1919" d="M100.5 128.7c-1.4.1-2.1.3-2.5.8-.2 0-.4.4-.4.8l.2.6c.4.5 1 .9 2.2.9.5 0 1.8-.1 3.1-.8.1-.1.7-.4 1.1-.9.5-.5.6-1 .7-1.7l-4.4.3Zm4.7 6.6-.3-1.4c-1 .4-4 1.9-7.4 1.9-4.9 0-6.6-2.5-6.6-4.9 0-.3 0-1.5.7-2.5a5.4 5.4 0 0 1 2.8-1.8c2.6-.7 7.8-.8 10.4-.9 0-.4 0-.8-.3-1.2-.6-.8-2-.9-3-.9-.8 0-2.6.1-3.3.9-.2.1-.2.3-.3.5h-6.4c.1-.8.5-3 2.6-4a17 17 0 0 1 7.3-1.2c.5 0 3.2 0 5.4.4.4.1 2.2.4 3.3 1.5 1.3 1.3 1.2 3 1.2 3.6v7.9c0 1.3.3 1.6.9 2.1h-7Z"/><g transform="translate(113.6 115.1)"><mask id="b" fill="#fff"><use href="#a"/></mask><path fill="#1A1919" d="M13.8 20.2v-7.4c0-.2 0-.9-.2-1.5-.7-2-2.6-2.1-3.2-2.1-2.3 0-3 1.6-3.3 2.5-.2.5-.2.7-.2 1.2v7.3H.2v-15h6.7V7l1.2-.8a9.9 9.9 0 0 1 5.4-1.4c1.7 0 3.1.2 4.5 1 .2.1.8.4 1.2.9l1 1.5c.3 1 .3 2 .3 4v8h-6.7m22-9.2c-.4-.8-1.3-1.9-3.2-1.9-2.1 0-3.6 1.3-3.6 3.4 0 .3 0 .9.3 1.5.6 1.3 1.8 2 3.2 2 2 0 3.5-1.4 3.5-3.5 0-.2 0-.9-.3-1.5zm.2 9.1v-1.5l-1 .7c-.8.4-2.5 1.2-4.7 1.2a8.5 8.5 0 0 1-5.3-1.8c-.4-.4-1.1-1-1.7-2.2-.7-1.2-1-2.5-1-3.8a9 9 0 0 1 1.3-4.6 7.6 7.6 0 0 1 6.8-3.5c3 0 4.6 1.2 5.6 2V.2h6.7v20H36zm37.4 31.1c0 1.5-1 3-2.8 3-1.7 0-2.6-1.5-2.6-3V23.6H47.5s3.4 7.3 3.4 17.5v10.4c0 10.6 7.5 18.6 19.7 18.6 12.3 0 19.8-8 19.8-18.6V23.6h-17v27.7" mask="url(#b)"/></g><path fill="#1A1919" d="M226 161h-1.7v-8h1.2c2 0 3.7 2 3.7 4s-1.5 4-3.2 4Zm19.5-3c0-15.6-11.2-19.2-24.3-19.2h-13.9v45.8h17v-10l5.3 10H249l-9.6-13.2c4.8-4 6.1-9.4 6.1-13.4Z"/><path fill="#1A1919" d="m272.2 138.7-6.4 13-6.2-13h-18.8l16.5 30.2v15.7h17v-15.5l16.6-30.4h-18.7M60.9 184.6H90v-15.4H78V166h9.2v-8.5H78v-3.3h12v-15.4H61v46M33.5 152.5l-7-13.7H9.4v45.8h17V164l7 12 7.2-12v20.6h17v-45.8h-17l-7.1 13.7M112.1 161h-1.7v-8h1.2c2 0 3.7 2 3.7 4s-1.5 4-3.2 4Zm49.5 8.3h-8.3a7.6 7.6 0 0 1-7.6-7.6c0-4.1 3.4-7.6 7.6-7.6h8c-.3-8.2-3.7-14.6-4-15.5h-4.6c-9.7 0-18 5.8-21.5 14.3-2.3-11.3-12.3-14.1-23.9-14.1h-14v45.8h17.1v-10l5.3 10H135l-9.6-13.2c2-1.7 3.4-3.6 4.3-5.5 2 10.8 11.5 19 23 19l18-.2a19.1 19.1 0 0 1-9.2-15.4Z"/></g></svg>