<svg width="256" height="256" fill="none" xmlns="http://www.w3.org/2000/svg"><circle cx="128" cy="128" r="128" fill="#5E9EE3"/><path fill-rule="evenodd" clip-rule="evenodd" d="m42.6 116-2.2-23.3-.4-17.3 7.9-.9.8 6.8 5.4-5.5 11.3-1.7 4.6 1.7-.8 9-5.9-1.2-4.7.7-4.2 4.6-3.1 4.1 1.1 15.6.5 8.7-10.3-1.3ZM74 91.1l-2.7 26.2h11.8V91.4l-9.2-.3ZM115.7 87.2l3.5-7.1-6.4-2.6-6.9-2-10.7 4.2-5.6 8.9 1.7 8.9 10.7 3.3 9.5 4.3-.7 4.8-4.8 2.4-10-.4-4.7-4.3-4.3 6.8 5.6 5 17.2 1.8 9-1.7 1.3-9 .8-11.3-10.7-5.6-7.7-1.7-.5-5 5.2-3 8.5 3.3ZM131.4 96.3l11.9-.5 13-.5-.4-11-6.8-5.5-15.5-2-9.2 5-2.2 11.4V106l6.8 8.5 16 5.5h10l3.8-4.7-4.6-6.7-4.2 3-12.2-1.8-4.6-3-2.5-5.4.7-5ZM161.4 82v15.5l2.1 11.8 6 8 4.7 2.6h11.4l8.5-5.5 2.1-12.3.5-16v-7.6l-9.2-.5v10.2l-.2 14-2.5 9.6-5.1 1.3-6-3-2.5-6.7-.8-13.9.3-8.9-9.3 1.4ZM201.9 78l-.3 20-1 18.2.8 2.4 8.1-.8.8-22 12.6-1 4-4.1 1.1-9-3.8-5.9-14.2-1.7-8.1 4ZM82.2 190.2 81 171.4v-19.2h9.2v7.7l6.7-6.8 12-2.2 8.2 6.4-.4 15.8.9 17-10-.8.5-16.6-2.1-9.4-5.2 1.3-6 1.7-4.6 6v17.9h-7.9ZM135.8 171.9l14-1.1 8.1-1.3-1.2-12.1-17-9-10.2 6-5.1 9.9-3 13.8 6.4 12.5 10.2 2.2 11.9-.5 7.2-5.1-6-7.8-2 2.6-11.1 2.6-6.8-7 .8-3.8 3.8-2ZM161.9 149.6l7.7-.1-.3-9 8.4 1.3.8 7.9 9.5-.3v8.8l-10-.2-.5 7.2V181l2.3 3.7 6.5-.6 1.2 7 1.8 6.9-13-5.2-6.5-6-1.7-7.3v-8.3l.7-13.4-7-.3.1-7.9Z" fill="#000"/><path d="m84.4 88.5-8-.6-.9-8.7s-4-8-6.6-9.3c-2.5-1.3-5.4-3.8-5.4-3.8s3.4-2.9 6.3-.8c3 2 3 2.5 3 2.5s3.3 1.3 4.1-5c.8-6.2 3.3-15.3 3.3-15.3s1.7-2.5 3-.8c1.2 1.6-2.5 15.7-2.5 15.7L88 46.8s2-2 2.5.4c.4 2.5-5.2 15.6-5.2 15.6L92.5 52s3-1.6 3 .8a44 44 0 0 1-6.9 11.3l9-5.3s2.9-.9 2.5 1.6c-.5 2.5-8.8 4.6-11 9.9-2.5 5.3-4.7 18.2-4.7 18.2Z" fill="#000"/><path fill-rule="evenodd" clip-rule="evenodd" d="m65.3 181-1.4 9.2 9.2-.9-1.7-8.3h-6.1Z" fill="#000"/></svg>