<svg xmlns="http://www.w3.org/2000/svg" width="80" height="80"><path fill-rule="evenodd" d="M25.104 38.286 9.402 62.3a3.104 3.104 0 1 0 5.196 3.398L29.427 43.02a10.2 10.2 0 0 0 6.178 2.084h8.28a10.2 10.2 0 0 0 6.587-2.413l15.976 23.076a3.104 3.104 0 1 0 5.104-3.534L54.747 37.959l15.595-17.921a3.104 3.104 0 1 0-4.684-4.076L46.895 37.524a3.991 3.991 0 0 1-3.01 1.372h-8.28a3.991 3.991 0 0 1-3.046-1.413l-18.19-21.489a3.104 3.104 0 1 0-4.738 4.012l15.473 18.28ZM7 8h66a4 4 0 0 1 4 4v56a4 4 0 0 1-4 4H7a4 4 0 0 1-4-4V12a4 4 0 0 1 4-4Z"/></svg>