<svg xmlns="http://www.w3.org/2000/svg" width="80" height="80" fill="none"><path fill="#000" fill-rule="evenodd" d="M13 56c-2.682 0-5 2.26-5 5.228s2.318 5.23 5 5.23 5-2.262 5-5.23C18 58.261 15.682 56 13 56ZM2 61.228C2 55.108 6.846 50 13 50s11 5.107 11 11.228c0 6.122-4.846 11.23-11 11.23S2 67.35 2 61.227ZM34.589 29.494a6.55 6.55 0 0 0-2.205.197c-.806.204-1.563.452-2.274.736l-2.23-5.57c.96-.384 1.97-.714 3.035-.983a12.54 12.54 0 0 1 4.207-.357l-.533 5.977Zm6.653 4.614c-1.32-1.662-2.608-2.893-3.894-3.666l3.091-5.143c2.133 1.282 3.939 3.11 5.501 5.077l-4.698 3.732Zm-13.936-2.24a17.534 17.534 0 0 0-3.614 3.09l-4.468-4.005a23.532 23.532 0 0 1 4.85-4.141l3.232 5.055Zm43.918.967c.072.47.168 1.139.264 1.953l-5.958.705a50.905 50.905 0 0 0-.33-2.326l-.005-.025v-.002l2.951-.536 2.952-.536v.003l.004.017.007.043a39.419 39.419 0 0 1 .115.703ZM46.787 42.79c-1.081-1.879-2.138-3.707-3.236-5.414l5.046-3.246c1.19 1.85 2.319 3.806 3.39 5.666l-5.2 2.994Zm-25.06-5.248a25.34 25.34 0 0 0-2.26 4.436l-5.581-2.203a31.33 31.33 0 0 1 2.801-5.489l5.04 3.256Zm50.08.841c.099 1.68.136 3.58.022 5.496l-5.99-.358a41.117 41.117 0 0 0-.021-4.787l5.99-.35ZM52.913 52.25c-1.412-1.685-2.708-3.676-3.923-5.69l5.138-3.1c1.166 1.935 2.273 3.61 3.383 4.935l-4.598 3.855ZM17.925 47.51l-2.977-.37-2.977-.37v-.005l.001-.008.003-.02.008-.056.027-.187c.024-.155.059-.372.109-.642.1-.539.258-1.294.497-2.203l5.802 1.527a24.576 24.576 0 0 0-.4 1.767 14.903 14.903 0 0 0-.092.558l-.002.013v-.004Zm53.448.156c-.391 2.045-1.08 4.185-2.334 5.942l-4.883-3.485c.553-.776 1.016-1.974 1.324-3.585l5.893 1.128Zm-10.196 9.568c-1.627-.122-3.089-.68-4.377-1.478l3.159-5.1c.62.384 1.163.557 1.666.595.593.044 1.012-.03 1.313-.137l2.005 5.655c-1.176.417-2.44.564-3.766.465ZM75.732 17.583l2.121-2.121-4.242-4.243-2.122 2.121-3.956 3.957-4.051-4.05-2.122-2.122-4.242 4.242 2.121 2.122 4.05 4.05-3.956 3.957-2.121 2.122 4.242 4.242 2.122-2.12 3.957-3.958 4.05 4.051 2.122 2.122 4.242-4.243-2.121-2.122-4.05-4.05 3.956-3.957Z"/></svg>