<svg xmlns="http://www.w3.org/2000/svg" width="80" height="80"><path d="m49.752 57.244 4.23 4.23-2.18 2.18-4.23-4.23zM33.015 40.506l14.521 14.521-2.179 2.18-12.342-12.341L5.632 72.25l-2.18-2.18z"/><path d="m58.803 28.687 17.745 17.745-2.18 2.18-15.565-15.564L41.09 50.761l-2.18-2.18zM23.883 32.947c-4.997 0-9.063-4.066-9.063-9.064 0-4.997 4.065-9.063 9.063-9.063s9.064 4.066 9.064 9.063c0 4.997-4.067 9.064-9.064 9.064Zm0-15.044a5.987 5.987 0 0 0-5.98 5.98 5.987 5.987 0 0 0 5.98 5.98 5.987 5.987 0 0 0 5.98-5.98 5.987 5.987 0 0 0-5.98-5.98Z"/><path d="M69.292 77H10.708C6.458 77 3 73.542 3 69.292V10.708C3 6.458 6.458 3 10.708 3h58.584C73.542 3 77 6.458 77 10.708v58.584C77 73.542 73.542 77 69.292 77ZM10.708 6.083a4.63 4.63 0 0 0-4.625 4.625v58.584a4.63 4.63 0 0 0 4.625 4.625h58.584a4.63 4.63 0 0 0 4.625-4.625V10.708a4.63 4.63 0 0 0-4.625-4.625H10.708Z"/></svg>