<svg xmlns="http://www.w3.org/2000/svg" width="80" height="80" fill="none"><path fill="#000" fill-rule="evenodd" d="M41.768 17.041 33.53 9.832a2 2 0 0 1-.188-2.822l1.316-1.505a2 2 0 0 1 2.823-.188L51.975 18a3 3 0 0 1 0 4.515L37.481 35.2a2 2 0 0 1-2.823-.189l-1.316-1.505a2 2 0 0 1 .188-2.822l8.733-7.642H39.84C27.755 23.187 18 33.03 18 45.15a22.018 22.018 0 0 0 5.049 14.063c.429.52.882 1.02 1.356 1.5l.066-.067c8.634 8.634 22.633 8.634 31.267 0 8.157-8.157 8.607-21.104 1.35-29.79-.708-.847-.717-2.11.064-2.89l1.414-1.414c.781-.781 2.054-.786 2.778.048a28.02 28.02 0 0 1 6.869 18.55h.004c0 15.524-12.584 28.109-28.108 28.109C24.585 73.258 12 60.673 12 45.149c0-15.41 12.4-27.924 27.768-28.107h2Z" clip-rule="evenodd"/></svg>