<svg xmlns="http://www.w3.org/2000/svg" width="80" height="80" viewBox="0 0 80 80">
  <g fill="#000000" transform="translate(4 10)">
    <path d="M-1.32857605,66.0942001 L3.7853871,46.8035886 C-0.624067954,41.5399873 -3,35.3196819 -3,28.8412713 C-3,11.1248797 14.5894276,-3 36,-3 C57.4105724,-3 75,11.1248797 75,28.8412713 C75,46.5576629 57.4105724,60.6825425 36,60.6825425 C30.1380272,60.6825425 24.4229523,59.6257927 19.193688,57.5860094 L-1.32857605,66.0942001 Z M7.57963675,55.9057999 L19.1847624,51.094507 L20.5875894,51.6790254 C25.3231176,53.6521862 30.5791977,54.6825425 36,54.6825425 C54.3507476,54.6825425 69,42.9187187 69,28.8412713 C69,14.7638238 54.3507476,3 36,3 C17.6492524,3 3,14.7638238 3,28.8412713 C3,34.1671867 5.08192883,39.3103402 9.02052852,43.6821999 L10.410971,45.2255958 L7.57963675,55.9057999 Z"/>
    <path d="M0 3C-1.65685425 3-3 1.65685425-3 0-3-1.65685425-1.65685425-3 0-3L40-3C41.6568542-3 43-1.65685425 43 0 43 1.65685425 41.6568542 3 40 3L0 3zM0 16C-1.65685425 16-3 14.6568542-3 13-3 11.3431458-1.65685425 10 0 10L26 10C27.6568542 10 29 11.3431458 29 13 29 14.6568542 27.6568542 16 26 16L0 16z" transform="translate(16 23)"/>
  </g>
</svg>
