<svg xmlns="http://www.w3.org/2000/svg" width="80" height="80"><path d="m2.671 76.094 5.114-19.29C3.375 51.54 1 45.32 1 38.84 1 21.125 18.59 7 40 7s39 14.125 39 31.841c0 17.717-17.59 31.842-39 31.842-5.862 0-11.577-1.057-16.806-3.097L2.67 76.094Zm8.909-10.188 11.605-4.811 1.403.584c4.735 1.973 9.991 3.004 15.412 3.004 18.35 0 33-11.764 33-25.842C73 24.764 58.35 13 40 13S7 24.764 7 38.841c0 5.326 2.082 10.47 6.02 14.841l1.391 1.544-2.831 10.68Z"/><path d="M20 36a3 3 0 1 1 0-6h40a3 3 0 0 1 0 6H20zm0 13a3 3 0 0 1 0-6h26a3 3 0 0 1 0 6H20z"/></svg>