<svg xmlns="http://www.w3.org/2000/svg" width="30" height="29.993"><defs><linearGradient id="a"><stop offset="0" stop-color="#fff" stop-opacity=".727"/><stop offset="1" stop-color="#fff"/></linearGradient><linearGradient id="b"><stop offset="0" stop-color="#fff"/><stop offset="1" stop-color="#fff" stop-opacity="0"/></linearGradient><linearGradient id="c" x1="146.039" x2="162.228" y1="3.97" y2="28.299" gradientTransform="matrix(.6385 0 0 .60249 -105.82 -12.35)" gradientUnits="userSpaceOnUse" href="#b"/></defs><path d="M30 14.997c0 8.282-6.714 14.996-14.997 14.996C6.721 29.993.007 23.28.007 14.997.007 6.714 6.72 0 15.003 0 23.286 0 30 6.714 30 14.997Z" style="fill:#630;fill-opacity:1;fill-rule:nonzero;stroke:#fff;stroke-width:0;stroke-miterlimit:4;stroke-dashoffset:0;marker-start:none;marker-mid:none;marker-end:none"/><path d="M14.994.008C6.716.008 0 6.724 0 15.002c0 3.978 1.623 7.532 4.152 10.217C5.467 14.364 14.628 5.925 25.835 5.925c.302 0 .583.061.882.074-2.743-3.567-6.88-5.99-11.723-5.99Z" style="fill:url(#c);fill-rule:nonzero;stroke-width:.616072;stroke-miterlimit:4;stroke-dashoffset:0;marker-start:none;marker-mid:none;marker-end:none"/><path d="m5.21 17.528 2.562 2.563 7.257-7.257 7.187 7.187 2.582-2.581-9.75-9.75-9.838 9.838z" style="fill:#fff;fill-rule:nonzero;stroke-width:1.75000203;stroke-linecap:round;stroke-linejoin:round;stroke-miterlimit:4;stroke-dashoffset:0;marker-start:none;marker-mid:none;marker-end:none"/></svg>