<svg xmlns="http://www.w3.org/2000/svg" width="80" height="80"><g fill="#000" fill-rule="evenodd"><path d="M7 7h66a4 4 0 0 1 4 4v58a4 4 0 0 1-4 4H7a4 4 0 0 1-4-4V11a4 4 0 0 1 4-4Zm0 16v42a4 4 0 0 0 4 4h58a4 4 0 0 0 4-4V23H7Zm18-12a2 2 0 0 0-2 2v5a2 2 0 0 0 2 2h46a2 2 0 0 0 2-2v-5a2 2 0 0 0-2-2H25Zm-12.776 1.496a.857.857 0 0 0-1.142-1.278l-3.714 3.317a1.102 1.102 0 0 0-.088 1.556c.042.046.042.046.088.088l3.714 3.317a.857.857 0 0 0 1.142-1.278l-3.203-2.86 3.203-2.862Zm5.895 3.004-3.203 2.86a.857.857 0 0 0 1.142 1.28l3.714-3.318c.046-.042.046-.042.088-.088a1.102 1.102 0 0 0-.088-1.556l-3.714-3.317a.857.857 0 0 0-1.142 1.278L18.12 15.5Z"/><path d="m51.645 45.232 5.749 11.283a2.8 2.8 0 0 1-1.224 3.765l-1.247.636a2.8 2.8 0 0 1-3.765-1.223l-5.75-11.284-2.54 2.91a1.4 1.4 0 0 1-2.453-.907l-.159-17.063a1.4 1.4 0 0 1 2.233-1.137L56.2 42.369a1.4 1.4 0 0 1-.708 2.519l-3.846.344Z"/></g></svg>